<svg width="18" height="18" viewBox="0 0 18 18" fill="none" xmlns="http://www.w3.org/2000/svg">
<g id="Group">
<path id="Path" fill-rule="evenodd" clip-rule="evenodd" d="M12 12.75H8.25C6.59315 12.75 5.25 11.4069 5.25 9.75V5.25C5.25 3.59315 6.59315 2.25 8.25 2.25H12.75C14.4069 2.25 15.75 3.59315 15.75 5.25V9C15.75 11.0711 14.0711 12.75 12 12.75Z" stroke="#383838" stroke-width="1.5" stroke-linecap="round" stroke-linejoin="round"/>
<path id="Path_2" d="M9 12.75H10.0833C10.7277 12.75 11.25 12.2277 11.25 11.5833V10.5833C11.25 9.29467 12.2947 8.25 13.5833 8.25H14.5833C14.8928 8.25 15.1895 8.12708 15.4083 7.90829C15.6271 7.6895 15.75 7.39275 15.75 7.08333V6" stroke="#383838" stroke-width="1.5" stroke-linecap="round" stroke-linejoin="round"/>
<path id="Path_3" d="M12.75 12.6749V12.75V12.75C12.75 14.4069 11.4069 15.75 9.75 15.75H5.25C3.59315 15.75 2.25 14.4069 2.25 12.75V8.25C2.25 6.59315 3.59315 5.25 5.25 5.25V5.25" stroke="#383838" stroke-width="1.5" stroke-linecap="round" stroke-linejoin="round"/>
</g>
</svg>
