<svg xmlns="http://www.w3.org/2000/svg" width="24" height="24" viewBox="0 0 24 24" fill="#1e6c41">
<path fill-rule="evenodd" clip-rule="evenodd" d="M8.99888 3.74625C8.30806 3.74625 7.74805 4.30626 7.74805 4.99708V6.99791C7.74805 7.41213 7.41226 7.74791 6.99805 7.74791C6.58383 7.74791 6.24805 7.41213 6.24805 6.99791V4.99708C6.24805 3.47784 7.47964 2.24625 8.99888 2.24625H19.003C20.5223 2.24625 21.7539 3.47784 21.7539 4.99708V19.0029C21.7539 20.5222 20.5223 21.7537 19.003 21.7537H8.99888C7.47964 21.7537 6.24805 20.5222 6.24805 19.0029V17.0021C6.24805 16.5879 6.58383 16.2521 6.99805 16.2521C7.41226 16.2521 7.74805 16.5879 7.74805 17.0021V19.0029C7.74805 19.6937 8.30806 20.2537 8.99888 20.2537H19.003C19.6939 20.2537 20.2539 19.6937 20.2539 19.0029V4.99708C20.2539 4.30626 19.6939 3.74625 19.003 3.74625H8.99888Z" />
<path fill-rule="evenodd" clip-rule="evenodd" d="M3.24609 8.99791C3.24609 7.47912 4.47731 6.24791 5.99609 6.24791H12.0003C13.519 6.24791 14.7503 7.47913 14.7503 8.99791V15.0021C14.7503 16.5209 13.519 17.7521 12.0003 17.7521H5.99609C4.47731 17.7521 3.24609 16.5209 3.24609 15.0021V8.99791ZM5.99609 7.74791C5.30574 7.74791 4.74609 8.30755 4.74609 8.99791V15.0021C4.74609 15.6924 5.30574 16.2521 5.99609 16.2521H12.0003C12.6906 16.2521 13.2503 15.6924 13.2503 15.0021V8.99791C13.2503 8.30755 12.6906 7.74791 12.0003 7.74791H5.99609Z" />
<path fill-rule="evenodd" clip-rule="evenodd" d="M13.25 9.07878C13.25 8.66457 13.5858 8.32878 14 8.32878H21.0029C21.4171 8.32878 21.7529 8.66457 21.7529 9.07878C21.7529 9.49299 21.4171 9.82878 21.0029 9.82878H14C13.5858 9.82878 13.25 9.49299 13.25 9.07878Z" />
<path fill-rule="evenodd" clip-rule="evenodd" d="M13.25 15.0013C13.25 14.587 13.5858 14.2513 14 14.2513H21.0029C21.4171 14.2513 21.7529 14.587 21.7529 15.0013C21.7529 15.4155 21.4171 15.7513 21.0029 15.7513H14C13.5858 15.7513 13.25 15.4155 13.25 15.0013Z" />
<path fill-rule="evenodd" clip-rule="evenodd" d="M14 2.24625C14.4142 2.24625 14.75 2.58203 14.75 2.99625V21.0037C14.75 21.418 14.4142 21.7537 14 21.7537C13.5858 21.7537 13.25 21.418 13.25 21.0037V2.99625C13.25 2.58203 13.5858 2.24625 14 2.24625Z" />
<path fill-rule="evenodd" clip-rule="evenodd" d="M7.07637 9.67982C7.39087 9.41026 7.86434 9.44668 8.13391 9.76117L11.1352 13.2626C11.4047 13.5771 11.3683 14.0506 11.0538 14.3202C10.7393 14.5897 10.2658 14.5533 9.99627 14.2388L6.99502 10.7374C6.72546 10.4229 6.76188 9.94939 7.07637 9.67982Z" />
<path fill-rule="evenodd" clip-rule="evenodd" d="M11.0538 9.67982C11.3683 9.94939 11.4047 10.4229 11.1352 10.7374L8.13391 14.2388C7.86434 14.5533 7.39087 14.5897 7.07637 14.3202C6.76188 14.0506 6.72546 13.5771 6.99502 13.2626L9.99627 9.76117C10.2658 9.44668 10.7393 9.41026 11.0538 9.67982Z" />
</svg>