<svg width="20" height="20" viewBox="0 0 20 20" fill="none" xmlns="http://www.w3.org/2000/svg">
<path d="M10 19H16C17.657 19 19 17.657 19 16V8.66701C19 7.74101 18.573 6.86701 17.842 6.29901L11.842 1.63201C10.759 0.789006 9.242 0.789006 8.158 1.63201L2.158 6.29901C1.427 6.86701 1 7.74101 1 8.66701V10" stroke="#F38321" stroke-width="1.5" stroke-linecap="round" stroke-linejoin="round"/>
<path d="M1.22509 18.55C1.34909 18.55 1.45009 18.652 1.45009 18.775C1.44909 18.899 1.34809 19 1.22509 19C1.10109 19 1.00009 18.899 1.00109 18.775C1.00009 18.651 1.10009 18.55 1.22509 18.55" stroke="#F38321" stroke-width="1.5" stroke-linecap="round" stroke-linejoin="round"/>
<path d="M1 16C2.756 16.039 3.961 17.244 4 19" stroke="#F38321" stroke-width="1.5" stroke-linecap="round" stroke-linejoin="round"/>
<path d="M7 19C6.991 18.241 6.863 17.53 6.633 16.879C6.045 15.214 4.786 13.955 3.12 13.366C2.47 13.137 1.759 13.009 1 13" stroke="#F38321" stroke-width="1.5" stroke-linecap="round" stroke-linejoin="round"/>
</svg>
