<svg width="60" height="60" viewBox="0 0 60 60" fill="none" xmlns="http://www.w3.org/2000/svg">
<path d="M19.9956 40.0042H32.5008" stroke="white" stroke-width="2.5" stroke-linecap="round" stroke-linejoin="round"/>
<path d="M39.6914 40.3168C39.8641 40.3168 40.0041 40.1768 40.0041 40.0042C40.0041 39.8315 39.8641 39.6916 39.6914 39.6916C39.5188 39.6916 39.3788 39.8315 39.3788 40.0042C39.3788 40.1768 39.5188 40.3168 39.6914 40.3168" stroke="white" stroke-width="2.5" stroke-linecap="round" stroke-linejoin="round"/>
<path d="M19.9956 30H32.5008" stroke="white" stroke-width="2.5" stroke-linecap="round" stroke-linejoin="round"/>
<path fill-rule="evenodd" clip-rule="evenodd" d="M9.9917 11.2417V48.7585C9.9917 49.6259 10.4405 50.4314 11.1785 50.887C11.9165 51.3427 12.8379 51.3833 13.6132 50.9945L15.5415 50.0291C16.2451 49.6764 17.0738 49.6764 17.7774 50.0291L22.2118 52.245C22.9154 52.5976 23.7441 52.5976 24.4477 52.245L28.8821 50.0291C29.5857 49.6764 30.4144 49.6764 31.118 50.0291L35.5523 52.245C36.2568 52.5976 37.0863 52.5976 37.7908 52.245L42.2201 50.0291C42.9246 49.6764 43.7541 49.6764 44.4586 50.0291L46.3894 50.9945C47.1644 51.3825 48.0851 51.3413 48.8224 50.8858C49.5598 50.4302 50.0084 49.6253 50.0084 48.7585V11.2417C50.0084 10.3743 49.5595 9.56879 48.8215 9.11315C48.0835 8.65751 47.1621 8.61685 46.3869 9.00573L44.4586 9.97113C43.755 10.3238 42.9262 10.3238 42.2226 9.97113L37.7883 7.75521C37.0847 7.40256 36.2559 7.40256 35.5523 7.75521L31.118 9.97113C30.4147 10.3213 29.5879 10.3213 28.8846 9.97113L24.4502 7.75521C23.7457 7.40256 22.9163 7.40256 22.2118 7.75521L17.7824 9.97113C17.078 10.3238 16.2485 10.3238 15.544 9.97113L13.6107 9.00573C12.8357 8.61774 11.915 8.65887 11.1776 9.11443C10.4403 9.56998 9.9917 10.3749 9.9917 11.2417Z" stroke="white" stroke-width="2.5" stroke-linecap="round" stroke-linejoin="round"/>
<path d="M39.6914 30.3127C39.8641 30.3127 40.0041 30.1727 40.0041 30C40.0041 29.8274 39.8641 29.6874 39.6914 29.6874C39.5188 29.6874 39.3788 29.8274 39.3788 30C39.3788 30.1727 39.5188 30.3127 39.6914 30.3127" stroke="white" stroke-width="2.5" stroke-linecap="round" stroke-linejoin="round"/>
<path d="M19.9956 19.9959H32.5008" stroke="white" stroke-width="2.5" stroke-linecap="round" stroke-linejoin="round"/>
<path d="M39.6914 20.3085C39.8641 20.3085 40.0041 20.1685 40.0041 19.9959C40.0041 19.8232 39.8641 19.6833 39.6914 19.6833C39.5188 19.6833 39.3788 19.8232 39.3788 19.9959C39.3788 20.1685 39.5188 20.3085 39.6914 20.3085" stroke="white" stroke-width="2.5" stroke-linecap="round" stroke-linejoin="round"/>
</svg>
