<svg width="18" height="18" viewBox="0 0 18 18" fill="none" xmlns="http://www.w3.org/2000/svg">
<g id="Group">
<path id="Path" d="M4.125 6H3.375C2.33947 6 1.5 6.83947 1.5 7.875V13.875C1.5 14.9105 2.33947 15.75 3.375 15.75H11.625C12.6605 15.75 13.5 14.9105 13.5 13.875V12.75" stroke="#383838" stroke-width="1.5" stroke-linecap="round" stroke-linejoin="round"/>
<path id="Path_2" d="M13.1213 7.875L13.125 7.87125L13.1287 7.875L13.125 7.87875L13.1213 7.875" stroke="#383838" stroke-width="1.5" stroke-linecap="round" stroke-linejoin="round"/>
<path id="Path_3" d="M10.4963 7.875L10.5 7.87125L10.5037 7.875L10.5 7.87875L10.4963 7.875" stroke="#383838" stroke-width="1.5" stroke-linecap="round" stroke-linejoin="round"/>
<path id="Path_4" d="M7.87125 7.875L7.875 7.87125L7.87875 7.875L7.875 7.87875L7.87125 7.875" stroke="#383838" stroke-width="1.5" stroke-linecap="round" stroke-linejoin="round"/>
<rect id="Rectangle" x="4.5" y="3" width="12" height="9.75" rx="2.5" stroke="#383838" stroke-width="1.5" stroke-linecap="round" stroke-linejoin="round"/>
</g>
</svg>
