<svg width="60" height="60" viewBox="0 0 60 60" fill="none" xmlns="http://www.w3.org/2000/svg">
<path fill-rule="evenodd" clip-rule="evenodd" d="M49 16.1675L44.75 10.5C43.3325 8.6125 41.11 7.5 38.75 7.5H21.25C18.89 7.5 16.6675 8.6125 15.25 10.5L11 16.1675C10.35 17.0325 10 18.085 10 19.1675V45C10 49.1425 13.3575 52.5 17.5 52.5H42.5C46.6425 52.5 50 49.1425 50 45V19.1675C50 18.085 49.65 17.0325 49 16.1675Z" stroke="white" stroke-width="2.5" stroke-linecap="round" stroke-linejoin="round"/>
<path d="M37.5 25C37.5 29.1425 34.1425 32.5 30 32.5C25.8575 32.5 22.5 29.1425 22.5 25" stroke="white" stroke-width="2.5" stroke-linecap="round" stroke-linejoin="round"/>
<path d="M49.6998 17.5H10.2998" stroke="white" stroke-width="2.5" stroke-linecap="round" stroke-linejoin="round"/>
</svg>
