<svg width="60" height="60" viewBox="0 0 60 60" fill="none" xmlns="http://www.w3.org/2000/svg">
<g id="Group">
<path id="Path" d="M27.5 52.5H12.5C9.73858 52.5 7.5 50.2614 7.5 47.5V12.5C7.5 9.73858 9.73858 7.5 12.5 7.5H47.5C50.2614 7.5 52.5 9.73858 52.5 12.5V27.5" stroke="white" stroke-width="2.5" stroke-linecap="round" stroke-linejoin="round"/>
<path id="Path_2" fill-rule="evenodd" clip-rule="evenodd" d="M50.9685 42.2348L46.634 44.0564C46.0384 44.3068 45.5646 44.7805 45.314 45.376L43.4867 49.7193C43.0767 50.6937 42.0981 51.3049 41.0426 51.2458C39.9871 51.1867 39.0829 50.4701 38.7842 49.4559L35.105 36.9592C34.8466 36.0815 35.0884 35.1327 35.7354 34.4857C36.3823 33.8387 37.3311 33.5968 38.2088 33.855L50.7055 37.5319C51.7198 37.8305 52.4366 38.7349 52.4956 39.7906C52.5547 40.8463 51.9432 41.825 50.9685 42.2348Z" stroke="white" stroke-width="2.5" stroke-linecap="round" stroke-linejoin="round"/>
<path id="Path_3" d="M25 40H17.5" stroke="white" stroke-width="2.5" stroke-linecap="round" stroke-linejoin="round"/>
<path id="Path_4" d="M25 30H17.5" stroke="white" stroke-width="2.5" stroke-linecap="round" stroke-linejoin="round"/>
<path id="Path_5" d="M42.5 20H17.5" stroke="white" stroke-width="2.5" stroke-linecap="round" stroke-linejoin="round"/>
</g>
</svg>
