<svg width="62" height="62" viewBox="0 0 62 62" fill="none" xmlns="http://www.w3.org/2000/svg">
<g id="Group">
<path id="Path" d="M15.9939 28.4989V22.559C15.9939 19.7964 18.2334 17.5569 20.996 17.5569H48.5074C51.27 17.5569 53.5095 19.7964 53.5095 22.559V48.5073C53.5095 51.2699 51.27 53.5094 48.5074 53.5094H33.5012" stroke="white" stroke-width="2.5" stroke-linecap="round" stroke-linejoin="round"/>
<path id="Path_2" d="M25.998 17.5569V15.6811C25.998 10.8466 29.9172 6.92749 34.7517 6.92749V6.92749C37.0733 6.92749 39.2998 7.84975 40.9415 9.49137C42.5831 11.133 43.5053 13.3595 43.5053 15.6811V17.5569" stroke="white" stroke-width="2.5" stroke-linecap="round" stroke-linejoin="round"/>
<circle id="Oval" cx="18.4949" cy="44.7557" r="10.0042" stroke="white" stroke-width="2.5" stroke-linecap="round" stroke-linejoin="round"/>
<path id="Path_3" d="M21.1485 42.1021L15.8413 47.4093" stroke="white" stroke-width="2.5" stroke-linecap="round" stroke-linejoin="round"/>
<path id="Path_4" d="M15.8413 42.1021L21.1485 47.4093" stroke="white" stroke-width="2.5" stroke-linecap="round" stroke-linejoin="round"/>
</g>
</svg>
