<svg xmlns="http://www.w3.org/2000/svg" width="22" height="22" viewBox="0 0 24 24" fill="#cb0000">
<path d="M7.40641 9.75586H6.22852C6.0806 9.75586 5.93873 9.81475 5.83427 9.91951C5.72981 10.0243 5.6714 10.1663 5.67188 10.3143L5.68008 14.5427C5.68008 14.8501 5.92931 15.0994 6.23672 15.0994C6.54413 15.0994 6.79336 14.8501 6.79336 14.5427V13.2588C7.02095 13.2577 7.26409 13.2567 7.40641 13.2567C8.38446 13.2567 9.1802 12.4714 9.1802 11.5063C9.1802 10.5411 8.38446 9.75586 7.40641 9.75586ZM7.40641 12.1434C7.26283 12.1434 7.0188 12.1444 6.79032 12.1456C6.78913 11.9086 6.78809 11.6534 6.78809 11.5063C6.78809 11.3804 6.78746 11.1168 6.78679 10.8691H7.40637C7.7644 10.8691 8.06688 11.1609 8.06688 11.5063C8.06688 11.8516 7.76444 12.1434 7.40641 12.1434Z"/>
<path d="M12.1412 9.75586H10.9785C10.8307 9.75586 10.689 9.81464 10.5845 9.91925C10.4801 10.0239 10.4216 10.1657 10.4219 10.3135C10.4219 10.3136 10.4302 14.4047 10.4302 14.4195C10.4307 14.5672 10.4899 14.7086 10.5947 14.8126C10.699 14.9161 10.84 14.9742 10.9868 14.9742H10.9889C11.0241 14.974 11.8534 14.9709 12.1849 14.9651C13.4427 14.9431 14.3556 13.8496 14.3556 12.365C14.3555 10.8044 13.4657 9.75586 12.1412 9.75586ZM12.1655 13.852C12.0213 13.8545 11.7733 13.8566 11.5416 13.858C11.5401 13.3745 11.537 11.3716 11.5362 10.8691H12.1412C13.1629 10.8691 13.2423 12.0141 13.2423 12.3651C13.2423 13.0958 12.9093 13.839 12.1655 13.852Z"/>
<path d="M18.0242 10.8262C18.3316 10.8262 18.5809 10.5769 18.5809 10.2695C18.5809 9.96211 18.3316 9.71288 18.0242 9.71288H16.3223C16.0149 9.71288 15.7656 9.96211 15.7656 10.2695V14.4687C15.7656 14.7762 16.0149 15.0254 16.3223 15.0254C16.6297 15.0254 16.8789 14.7762 16.8789 14.4687V12.886H17.889C18.1964 12.886 18.4457 12.6368 18.4457 12.3294C18.4457 12.022 18.1964 11.7728 17.889 11.7728H16.8789V10.8262H18.0242Z"/>
<path d="M19.6621 7.38086H19.2539V7.22207C19.2539 6.50653 18.9828 5.8265 18.4905 5.30719L16.1784 2.86832C15.6552 2.31651 14.919 2 14.1586 2H6.74805C5.82725 2 5.07812 2.74913 5.07812 3.66992V7.38086H4.66992C3.74913 7.38086 3 8.12999 3 9.05078V15.7305C3 16.6513 3.74913 17.4004 4.66992 17.4004H5.07812V19.3301C5.07812 20.2509 5.82725 21 6.74805 21H17.584C18.5048 21 19.2539 20.2509 19.2539 19.3301V17.4004H19.6621C20.5829 17.4004 21.332 16.6513 21.332 15.7305V9.05078C21.332 8.12999 20.5829 7.38086 19.6621 7.38086ZM6.19141 3.66992C6.19141 3.36299 6.44112 3.11328 6.74805 3.11328H14.1586C14.6149 3.11328 15.0566 3.30317 15.3705 3.6343L17.6826 6.07316C17.978 6.38473 18.1406 6.79275 18.1406 7.22207V7.38086H6.19141V3.66992ZM18.1406 19.3301C18.1406 19.637 17.8909 19.8867 17.584 19.8867H6.74805C6.44112 19.8867 6.19141 19.637 6.19141 19.3301V17.4004H18.1406V19.3301ZM20.2188 15.7305C20.2188 16.0374 19.969 16.2871 19.6621 16.2871H4.66992C4.36299 16.2871 4.11328 16.0374 4.11328 15.7305V9.05078C4.11328 8.74385 4.36299 8.49414 4.66992 8.49414H19.6621C19.969 8.49414 20.2188 8.74385 20.2188 9.05078V15.7305Z"/>
<path fill-rule="evenodd" clip-rule="evenodd" d="M4.92773 3.66992C4.92773 2.66628 5.74402 1.85 6.74766 1.85H14.1582C14.9598 1.85 15.7354 2.18343 16.2869 2.76512L18.599 5.20399C19.1177 5.75116 19.4035 6.46812 19.4035 7.22207V7.23086H19.6617C20.6654 7.23086 21.4816 8.04714 21.4816 9.05078V15.7305C21.4816 16.7341 20.6654 17.5504 19.6617 17.5504H19.4035V19.3301C19.4035 20.3337 18.5872 21.15 17.5836 21.15H6.74766C5.74402 21.15 4.92773 20.3337 4.92773 19.3301V17.5504H4.66953C3.66589 17.5504 2.84961 16.7341 2.84961 15.7305V9.05078C2.84961 8.04714 3.66589 7.23086 4.66953 7.23086H4.92773V3.66992ZM6.74766 2.15C5.9097 2.15 5.22773 2.83197 5.22773 3.66992V7.53086H4.66953C3.83158 7.53086 3.14961 8.21283 3.14961 9.05078V15.7305C3.14961 16.5684 3.83158 17.2504 4.66953 17.2504H5.22773V19.3301C5.22773 20.168 5.9097 20.85 6.74766 20.85H17.5836C18.4215 20.85 19.1035 20.168 19.1035 19.3301V17.2504H19.6617C20.4997 17.2504 21.1816 16.5684 21.1816 15.7305V9.05078C21.1816 8.21283 20.4997 7.53086 19.6617 7.53086H19.1035V7.22207C19.1035 6.54492 18.8471 5.90183 18.3812 5.41039L16.0691 2.97152C15.5743 2.44958 14.8775 2.15 14.1582 2.15H6.74766ZM6.74766 3.26328C6.52357 3.26328 6.34102 3.44583 6.34102 3.66992V7.23086H17.9902V7.22207C17.9902 6.83114 17.8423 6.46006 17.5733 6.17636L15.2612 3.73749C14.9757 3.43625 14.5733 3.26328 14.1582 3.26328H6.74766ZM6.04102 3.66992C6.04102 3.28015 6.35788 2.96328 6.74766 2.96328H14.1582C14.6556 2.96328 15.1367 3.17009 15.479 3.5311L17.7911 5.96996C18.1129 6.3094 18.2902 6.75435 18.2902 7.22207V7.53086H6.04102V3.66992ZM4.66953 8.64414C4.44544 8.64414 4.26289 8.82669 4.26289 9.05078V15.7305C4.26289 15.9546 4.44544 16.1371 4.66953 16.1371H19.6617C19.8858 16.1371 20.0684 15.9546 20.0684 15.7305V9.05078C20.0684 8.82669 19.8858 8.64414 19.6617 8.64414H4.66953ZM3.96289 9.05078C3.96289 8.66101 4.27976 8.34414 4.66953 8.34414H19.6617C20.0515 8.34414 20.3684 8.66101 20.3684 9.05078V15.7305C20.3684 16.1202 20.0515 16.4371 19.6617 16.4371H4.66953C4.27976 16.4371 3.96289 16.1202 3.96289 15.7305V9.05078ZM6.04102 17.2504H18.2902V19.3301C18.2902 19.7199 17.9734 20.0367 17.5836 20.0367H6.74766C6.35788 20.0367 6.04102 19.7199 6.04102 19.3301V17.2504ZM6.34102 17.5504V19.3301C6.34102 19.5542 6.52357 19.7367 6.74766 19.7367H17.5836C17.8077 19.7367 17.9902 19.5542 17.9902 19.3301V17.5504H6.34102Z"/>
</svg>