<svg width="50" height="50" viewBox="0 0 50 50" fill="none" xmlns="http://www.w3.org/2000/svg">
<g id="Group">
<g id="Group_2">
<path id="Path" fill-rule="evenodd" clip-rule="evenodd" d="M39.5104 34.6042L37.0667 32.1604C35.8458 30.9396 33.8667 30.9396 32.6479 32.1604L30.7271 34.0812C30.2979 34.5104 29.6479 34.6542 29.0938 34.4104C26.3104 33.1917 23.5604 31.3437 21.1083 28.8917C18.6667 26.45 16.825 23.7125 15.6042 20.9396C15.35 20.3667 15.4979 19.6937 15.9417 19.25L17.6625 17.5292C19.0604 16.1312 19.0604 14.1542 17.8396 12.9333L15.3958 10.4896C13.7688 8.86249 11.1313 8.86249 9.50418 10.4896L8.14584 11.8458C6.60209 13.3896 5.95834 15.6167 6.37501 17.825C7.40418 23.2687 10.5667 29.2292 15.6688 34.3312C20.7708 39.4333 26.7313 42.5958 32.175 43.625C34.3833 44.0416 36.6104 43.3979 38.1542 41.8542L39.5104 40.4979C41.1375 38.8708 41.1375 36.2333 39.5104 34.6042V34.6042Z" stroke="white" stroke-width="2.5" stroke-linecap="round" stroke-linejoin="round"/>
<path id="Path_2" d="M27.0835 14.5646C29.2314 14.5354 31.3897 15.3313 33.0293 16.9708" stroke="white" stroke-width="2.5" stroke-linecap="round" stroke-linejoin="round"/>
<path id="Path_3" d="M38.921 11.0792C35.6522 7.8104 31.3668 6.17499 27.0835 6.17499" stroke="white" stroke-width="2.5" stroke-linecap="round" stroke-linejoin="round"/>
<path id="Path_4" d="M35.4355 22.9167C35.4647 20.7687 34.6689 18.6104 33.0293 16.9708" stroke="white" stroke-width="2.5" stroke-linecap="round" stroke-linejoin="round"/>
<path id="Path_5" d="M38.9209 11.0792C42.1896 14.3479 43.8251 18.6333 43.8251 22.9167" stroke="white" stroke-width="2.5" stroke-linecap="round" stroke-linejoin="round"/>
</g>
</g>
</svg>
