<svg width="60" height="60" viewBox="0 0 60 60" fill="none" xmlns="http://www.w3.org/2000/svg">
<g id="Group">
<g id="Group_2">
<path id="Path" d="M52.4776 30.09C52.4551 35.82 50.2801 41.54 45.9101 45.91C37.1226 54.6975 22.8751 54.6975 14.0901 45.91C12.5276 44.3475 11.2551 42.605 10.2476 40.76" stroke="white" stroke-width="2.5" stroke-linecap="round" stroke-linejoin="round"/>
<path id="Path_2" d="M7.51245 29.635C7.60245 23.9975 9.78995 18.39 14.09 14.09C22.8775 5.30497 37.125 5.30497 45.91 14.09C47.4725 15.655 48.745 17.395 49.7525 19.24" stroke="white" stroke-width="2.5" stroke-linecap="round" stroke-linejoin="round"/>
<path id="Path_3" d="M44.03 19.2425H51.06V12.21" stroke="white" stroke-width="2.5" stroke-linecap="round" stroke-linejoin="round"/>
<path id="Path_4" d="M15.9699 40.7574H8.93994V47.7874" stroke="white" stroke-width="2.5" stroke-linecap="round" stroke-linejoin="round"/>
<path id="Path_5" d="M36.1874 23.8125C39.6049 27.23 39.6049 32.77 36.1874 36.1875C32.7699 39.605 27.2299 39.605 23.8124 36.1875C20.3949 32.77 20.3949 27.23 23.8124 23.8125C27.2299 20.395 32.7699 20.395 36.1874 23.8125" stroke="white" stroke-width="2.5" stroke-linecap="round" stroke-linejoin="round"/>
</g>
</g>
</svg>
