<svg width="318" height="250" viewBox="0 0 318 250" fill="none" xmlns="http://www.w3.org/2000/svg">
<g clip-path="url(#clip0_2267_8453)">
<path d="M76.1986 135.546C73.6656 121.99 77.6536 106.566 88.7379 98.3604C88.1097 113.345 92.802 128.069 101.985 139.927C105.543 144.487 109.975 149.189 109.837 154.971C109.751 158.569 107.806 161.921 105.241 164.446C102.677 166.971 99.518 168.792 96.397 170.584L95.9112 171.34C86.762 161.02 78.7317 149.103 76.1986 135.546Z" fill="#F0F0F0"/>
<path d="M88.9394 98.5677C84.2825 108.99 83.0279 120.615 85.3539 131.791C85.8119 134.205 86.6477 136.533 87.8305 138.687C89.0506 140.749 90.8004 142.446 92.8982 143.603C94.8325 144.721 96.9406 145.64 98.5695 147.208C99.3915 148.023 100.032 149.003 100.448 150.083C100.865 151.163 101.049 152.319 100.987 153.475C100.909 156.36 99.7997 159.044 98.6232 161.631C97.3169 164.504 95.9146 167.467 95.9993 170.697C96.0096 171.089 95.4018 171.082 95.3915 170.691C95.2441 165.072 99.3067 160.559 100.212 155.167C100.634 152.651 100.301 149.992 98.5322 148.042C96.9854 146.337 94.8124 145.387 92.8441 144.272C90.7811 143.174 89.0183 141.587 87.7099 139.65C86.4212 137.563 85.4972 135.272 84.9773 132.874C83.7207 127.495 83.3177 121.953 83.783 116.449C84.2791 110.164 85.8467 104.011 88.4177 98.2554C88.577 97.8992 89.0976 98.2138 88.9394 98.5677Z" fill="white"/>
<path d="M84.3931 128.236C82.465 128.372 80.5515 127.818 78.9943 126.673C77.437 125.528 76.3375 123.867 75.8919 121.986C75.8031 121.605 76.3907 121.449 76.4797 121.831C76.8914 123.583 77.9158 125.13 79.368 126.193C80.8203 127.256 82.6048 127.765 84.3994 127.628C84.7894 127.599 84.7809 128.207 84.3931 128.236Z" fill="white"/>
<path d="M91.8425 143.165C94.4599 140.205 95.8655 136.368 95.7792 132.418C95.7703 132.026 96.3781 132.033 96.387 132.424C96.4692 136.535 94.9983 140.526 92.2678 143.6C92.0074 143.892 91.5835 143.456 91.8425 143.165Z" fill="white"/>
<path d="M84.9907 110.542C85.7477 110.645 86.5183 110.558 87.2335 110.29C87.9486 110.021 88.5859 109.579 89.0881 109.004C89.3447 108.708 89.7683 109.144 89.5134 109.438C88.9556 110.071 88.2512 110.559 87.4617 110.857C86.6722 111.155 85.8216 111.256 84.9843 111.15C84.9046 111.146 84.8291 111.113 84.7732 111.056C84.7174 110.999 84.6853 110.922 84.6836 110.843C84.6848 110.762 84.7178 110.685 84.7753 110.629C84.8328 110.573 84.9102 110.541 84.9907 110.542Z" fill="white"/>
<path d="M134.066 109.574C133.911 109.763 133.756 109.953 133.603 110.147C131.532 112.704 129.673 115.424 128.043 118.282C127.914 118.501 127.786 118.725 127.663 118.947C123.81 125.874 121.276 133.457 120.191 141.308C119.762 144.433 119.571 147.586 119.621 150.74C119.689 155.096 120.11 159.813 118.775 163.818C118.64 164.238 118.48 164.649 118.295 165.048L96.8707 171.874C96.8142 171.865 96.7591 171.861 96.7024 171.852L95.8594 172.164C95.8455 172.002 95.8346 171.833 95.8207 171.67C95.8122 171.576 95.8085 171.48 95.8001 171.386C95.7959 171.323 95.792 171.259 95.7847 171.203C95.7832 171.181 95.782 171.16 95.7821 171.144C95.7748 171.087 95.774 171.034 95.7682 170.982C95.7045 170.038 95.6455 169.093 95.5966 168.145C95.5951 168.14 95.5951 168.14 95.5983 168.134C95.2305 160.912 95.4625 153.597 96.7974 146.549C96.8376 146.337 96.876 146.12 96.9261 145.905C97.5454 142.732 98.4231 139.614 99.5503 136.583C100.173 134.926 100.879 133.301 101.666 131.715C103.707 127.621 106.379 123.874 109.585 120.61C115.976 114.105 124.377 109.716 133.378 109.578C133.609 109.574 133.835 109.572 134.066 109.574Z" fill="#F0F0F0"/>
<path d="M134.104 109.861C124.111 115.379 116.111 123.905 111.239 134.229C110.151 136.433 109.417 138.795 109.064 141.227C108.797 143.608 109.172 146.016 110.151 148.203C111.022 150.26 112.152 152.263 112.509 154.496C112.674 155.642 112.595 156.81 112.278 157.923C111.96 159.036 111.411 160.07 110.666 160.956C108.867 163.212 106.365 164.687 103.868 166.044C101.095 167.552 98.1912 169.073 96.3143 171.703C96.0869 172.022 95.6058 171.65 95.8328 171.332C99.0984 166.757 105.059 165.599 109.028 161.839C110.88 160.085 112.215 157.761 111.977 155.139C111.769 152.846 110.605 150.78 109.705 148.704C108.719 146.585 108.267 144.257 108.388 141.923C108.616 139.481 109.258 137.095 110.286 134.868C112.521 129.816 115.536 125.148 119.221 121.034C123.401 116.315 128.358 112.346 133.876 109.298C134.217 109.109 134.444 109.674 134.104 109.861Z" fill="white"/>
<path d="M112.612 130.813C110.991 129.76 109.796 128.166 109.242 126.314C108.688 124.462 108.81 122.474 109.587 120.704C109.745 120.346 110.309 120.576 110.15 120.934C109.424 122.581 109.31 124.433 109.83 126.156C110.349 127.879 111.467 129.36 112.983 130.331C113.312 130.543 112.939 131.023 112.612 130.813Z" fill="white"/>
<path d="M109.572 147.218C113.443 146.431 116.876 144.213 119.185 141.007C119.414 140.689 119.895 141.06 119.667 141.378C117.258 144.71 113.681 147.01 109.65 147.821C109.265 147.898 109.189 147.294 109.572 147.218Z" fill="white"/>
<path d="M123.741 117.045C124.284 117.583 124.951 117.978 125.684 118.194C126.417 118.41 127.192 118.441 127.939 118.284C128.322 118.202 128.398 118.805 128.017 118.886C127.19 119.056 126.335 119.021 125.525 118.784C124.715 118.547 123.975 118.115 123.37 117.526C123.309 117.476 123.269 117.403 123.258 117.324C123.248 117.245 123.268 117.165 123.315 117.1C123.365 117.037 123.437 116.995 123.517 116.985C123.597 116.975 123.677 116.996 123.741 117.045Z" fill="white"/>
<path d="M167.717 35.4403C167.789 35.7558 167.836 36.0765 167.857 36.3993L192.976 50.8903L199.082 47.3755L205.591 55.8965L195.387 63.1692C194.562 63.7567 193.57 64.061 192.558 64.0363C191.546 64.0117 190.569 63.6594 189.774 63.0324L163.872 42.5983C162.703 43.031 161.43 43.0975 160.223 42.7891C159.015 42.4807 157.93 41.8119 157.112 40.8717C156.293 39.9314 155.781 38.7644 155.642 37.5257C155.503 36.2869 155.744 35.0353 156.334 33.9373C156.924 32.8392 157.834 31.9467 158.944 31.3786C160.053 30.8104 161.309 30.5935 162.545 30.7567C163.781 30.9198 164.938 31.4554 165.862 32.292C166.786 33.1287 167.433 34.2267 167.717 35.4403Z" fill="#FFB6B6"/>
<path d="M193.325 49.2904C193.405 48.9207 193.563 48.5726 193.79 48.2698C194.016 47.967 194.305 47.7166 194.638 47.5358L206.234 41.2171C207.779 40.0516 209.722 39.546 211.639 39.8113C213.555 40.0767 215.289 41.0912 216.458 42.6325C217.628 44.1738 218.138 46.1161 217.878 48.0333C217.618 49.9505 216.608 51.6863 215.069 52.8599L205.775 62.3022C205.509 62.5716 205.189 62.7807 204.836 62.9153C204.482 63.0498 204.104 63.1066 203.727 63.0818C203.35 63.057 202.982 62.9511 202.649 62.7714C202.317 62.5918 202.027 62.3425 201.799 62.0406L193.796 51.4305C193.568 51.1286 193.408 50.7812 193.327 50.4119C193.246 50.0425 193.245 49.66 193.325 49.2904Z" fill="#3F3D56"/>
<path d="M214.044 12.5561C215.713 7.23848 219.507 2.36133 224.755 0.563671C230.003 -1.23398 237.687 1.50443 241.632 5.43628C248.849 12.6284 250.61 37.336 245.652 45.1439C244.665 45.0917 241.262 45.0531 240.264 45.0157L238.852 40.3097V44.9693C231.062 44.7285 222.951 44.8793 214.836 45.0352C214.109 39.5071 212.376 17.8738 214.044 12.5561Z" fill="#2F2E41"/>
<path d="M211.81 235.763H204.704L201.324 208.355L211.812 208.355L211.81 235.763Z" fill="#FFB6B6"/>
<path d="M274.016 231.345L267.14 233.137L256.955 207.467L267.103 204.823L274.016 231.345Z" fill="#FFB6B6"/>
<path d="M234.855 67.4258L236.466 71.6119L236.144 75.798L204.633 86.7122L206.196 68.3917L209.738 64.2051L234.855 67.4258Z" fill="#FFB6B6"/>
<path d="M224.893 29.7541C231.109 29.7541 236.148 24.7153 236.148 18.4996C236.148 12.2839 231.109 7.24511 224.893 7.24511C218.677 7.24511 213.639 12.2839 213.639 18.4996C213.639 24.7153 218.677 29.7541 224.893 29.7541Z" fill="#FFB7B7"/>
<path d="M217.16 3.84427C219.322 2.52594 221.799 1.81281 224.332 1.77942C226.864 1.74603 229.359 2.39362 231.555 3.65448C233.752 4.91534 235.569 6.74316 236.818 8.94682C238.066 11.1505 238.699 13.649 238.651 16.1812C232.517 17.7492 225.979 18.4051 219.051 16.5589L217.467 12.683L216.534 16.5617C214.414 18.0527 212.368 18.05 210.397 16.5537C210.313 14.0286 210.894 11.5258 212.08 9.29553C213.267 7.06522 215.019 5.1855 217.16 3.84427Z" fill="#2F2E41"/>
<path d="M214.99 249.256H209.948L209.048 244.495L206.743 249.256H193.37C192.729 249.256 192.104 249.051 191.588 248.671C191.072 248.291 190.69 247.756 190.499 247.144C190.309 246.532 190.319 245.875 190.528 245.269C190.737 244.663 191.134 244.14 191.661 243.776L202.341 236.4V231.588L213.574 232.258L214.99 249.256Z" fill="#2F2E41"/>
<path d="M281.117 243.436L276.238 244.708L274.167 240.329L273.137 245.517L260.196 248.89C259.576 249.052 258.92 249.011 258.325 248.773C257.729 248.536 257.225 248.115 256.886 247.571C256.547 247.026 256.391 246.388 256.441 245.749C256.49 245.11 256.742 244.503 257.161 244.018L265.635 234.187L264.421 229.53L275.459 227.346L281.117 243.436Z" fill="#2F2E41"/>
<path d="M273.143 214.108L252.314 171.299L245.776 119.195C250.284 110.823 241.911 93.7868 241.911 93.7868V86.634L209.479 92.7525C202.846 110.845 199.629 130.012 199.992 149.279L201.299 218.54H200.889C200.209 218.54 199.557 218.81 199.076 219.291C198.594 219.772 198.324 220.425 198.324 221.105C198.324 221.785 198.594 222.438 199.076 222.919C199.557 223.4 200.209 223.67 200.889 223.67H213.714C214.395 223.67 215.047 223.4 215.528 222.919C216.009 222.438 216.279 221.785 216.279 221.105C216.279 220.425 216.009 219.772 215.528 219.291C215.047 218.81 214.395 218.54 213.714 218.54H213.384L222.591 130.428L233.296 173.909L259.167 213.944C258.507 213.995 257.892 214.3 257.453 214.795C257.013 215.29 256.782 215.936 256.809 216.597C256.835 217.259 257.117 217.884 257.595 218.342C258.073 218.8 258.71 219.055 259.372 219.053H272.197C272.793 219.054 273.371 218.846 273.831 218.466C274.291 218.086 274.604 217.558 274.716 216.972C274.828 216.386 274.733 215.78 274.445 215.257C274.158 214.734 273.697 214.328 273.143 214.108Z" fill="#2F2E41"/>
<path d="M244.843 98.1721C244.736 97.7535 244.5 97.3794 244.168 97.1034C243.836 96.8275 243.425 96.6637 242.994 96.6357C242.566 91.7482 239.741 60.4029 239.634 59.4833L239.63 59.4444L238.812 41.9726C238.782 41.3381 238.52 40.7367 238.075 40.2834C237.63 39.8301 237.033 39.5566 236.399 39.5151L232.08 39.2328C232.02 39.2308 231.964 39.2058 231.923 39.1632C231.882 39.1206 231.859 39.0636 231.859 39.0043C231.859 38.5273 231.765 38.0549 231.582 37.6141C231.4 37.1734 231.132 36.7729 230.795 36.4356C230.457 36.0982 230.057 35.8306 229.616 35.6481C229.175 35.4655 228.703 35.3715 228.226 35.3715H215.436C214.608 35.3719 213.808 35.6745 213.187 36.2227C212.566 36.7709 212.166 37.527 212.063 38.3489C212.057 38.4055 212.03 38.4579 211.988 38.4955C211.945 38.5332 211.89 38.5534 211.833 38.5521L211.831 38.5521C210.378 38.5222 208.962 39.0142 207.841 39.9389C206.719 40.8636 205.966 42.1597 205.719 43.592C203.97 53.7654 200.466 76.8552 202.199 89.6918C202.802 94.1604 202.528 100.881 202.299 104.62C202.277 104.981 202.326 105.344 202.443 105.686C202.561 106.028 202.745 106.344 202.985 106.615C202.475 106.763 202.042 107.102 201.777 107.562C201.512 108.022 201.436 108.567 201.565 109.082C201.699 109.61 202.036 110.063 202.503 110.342C202.97 110.621 203.529 110.703 204.057 110.57L243.355 100.663C243.883 100.53 244.336 100.193 244.615 99.726C244.894 99.2588 244.976 98.6998 244.843 98.1721Z" fill="#4B4862"/>
<path d="M179.894 171.626C179.887 170.478 179.473 169.371 178.727 168.499C177.981 167.627 176.95 167.048 175.818 166.864L106.144 155.423C105.476 155.312 104.792 155.343 104.137 155.512L87.8084 159.734L78.4396 162.16L61.15 166.629C60.1063 166.9 59.182 167.51 58.5222 168.363C57.8623 169.216 57.5042 170.263 57.5039 171.342V244.35C57.5091 245.463 57.8937 246.541 58.5942 247.406C59.2947 248.27 60.2692 248.871 61.3569 249.107L132.324 248.303C132.657 248.375 132.997 248.41 133.338 248.409C133.835 248.41 134.328 248.334 134.802 248.186L176.966 249.235C177.961 248.924 178.829 248.301 179.442 247.458C180.055 246.615 180.38 245.597 180.368 244.555L179.894 171.626Z" fill="white"/>
<path d="M179.894 171.626C179.887 170.478 179.473 169.371 178.727 168.499C177.981 167.627 176.95 167.048 175.818 166.864L106.144 155.423C105.476 155.312 104.792 155.343 104.137 155.512L87.8084 159.734L78.4396 162.16L61.15 166.629C60.1063 166.9 59.182 167.51 58.5222 168.363C57.8623 169.216 57.5042 170.263 57.5039 171.342V244.35C57.5091 245.463 57.8937 246.541 58.5942 247.406C59.2947 248.27 60.2692 248.871 61.3569 249.107L132.324 248.303C132.657 248.375 132.997 248.41 133.338 248.409C133.835 248.41 134.328 248.335 134.802 248.186L176.966 249.235C177.961 248.924 178.829 248.301 179.442 247.458C180.055 246.615 180.38 245.597 180.368 244.555L179.894 171.626ZM176.601 248.075L134.437 249.078C133.836 249.265 133.196 249.296 132.58 249.167L61.6083 247.919C60.7929 247.741 60.0624 247.29 59.5374 246.642C59.0124 245.993 58.7243 245.184 58.7206 244.35V171.342C58.7212 170.594 58.9508 169.865 59.3787 169.252C59.8066 168.639 60.4121 168.173 61.1135 167.915C61.2249 167.873 61.3387 167.838 61.4542 167.809L79.7456 163.08L90.5622 160.282L104.441 156.692C104.739 156.613 105.045 156.573 105.353 156.575C105.552 156.575 105.75 156.591 105.946 156.623L175.619 168.065C176.18 168.157 176.711 168.378 177.172 168.711C177.632 169.044 178.009 169.479 178.272 169.983C178.535 170.494 178.674 171.059 178.677 171.634L179.152 244.563C179.16 245.345 178.917 246.108 178.458 246.741C177.998 247.374 177.347 247.841 176.601 248.075Z" fill="#CCCCCC"/>
<path d="M178.273 169.983C178.225 170.014 178.173 170.037 178.119 170.052L157.625 175.592L151.245 177.316L133.1 182.219C133.048 182.232 132.995 182.239 132.942 182.24C132.905 182.239 132.868 182.236 132.832 182.231L59.6667 168.892L59.4233 168.847C59.2648 168.818 59.1245 168.726 59.0332 168.593C58.9418 168.461 58.9067 168.297 58.9357 168.138C58.9646 167.98 59.0552 167.839 59.1876 167.747C59.32 167.655 59.4835 167.619 59.6423 167.647L61.1146 167.915L132.917 181.006L148.556 176.78L157.304 174.416L177.482 168.961L177.802 168.876C177.941 168.839 178.088 168.853 178.217 168.913C178.347 168.974 178.451 169.079 178.512 169.208C178.528 169.239 178.54 169.272 178.548 169.306C178.582 169.433 178.573 169.568 178.523 169.69C178.474 169.812 178.386 169.915 178.273 169.983Z" fill="#CCCCCC"/>
<path d="M133.549 248.551C133.215 248.551 132.944 248.282 132.94 250L132.332 183.689C132.329 181.301 132.599 181.026 132.935 181.023H132.94C133.274 181.023 133.546 181.291 133.549 183.678L134.157 249.989C134.16 248.273 133.89 248.548 133.554 248.551H133.549Z" fill="#CCCCCC"/>
<path d="M157.796 249.32L151.244 249.39L148.555 176.781L79.9441 163.129C79.8769 163.117 79.8105 163.101 79.7454 163.08C79.2184 162.93 78.7579 162.606 78.4395 162.16L87.8082 159.734L90.5621 160.282L155.665 173.232C156.007 173.299 156.331 173.44 156.614 173.645C156.896 173.849 157.132 174.112 157.303 174.416C157.506 174.769 157.792 248.899 157.796 249.32Z" fill="#CCCCCC"/>
<path d="M210.279 38.7265C210.273 37.8618 209.962 37.027 209.399 36.3701C208.837 35.7133 208.06 35.2767 207.207 35.138L154.697 26.5153C154.194 26.4319 153.678 26.4548 153.184 26.5825L140.878 29.7645L133.817 31.5923L120.787 34.9607C120 35.165 119.304 35.6246 118.807 36.2674C118.309 36.9101 118.039 37.6998 118.039 38.5125V81.5497C118.043 82.3885 118.333 83.2009 118.861 83.8528C119.389 84.5046 120.123 84.957 120.943 85.1351L174.428 96.515C174.679 96.5689 174.935 96.5955 175.192 96.5944C175.566 96.5951 175.938 96.5384 176.295 96.4263L208.072 86.3914C208.822 86.1574 209.476 85.6878 209.938 85.0524C210.4 84.417 210.645 83.6496 210.636 82.8641L210.279 38.7265Z" fill="white"/>
<path d="M154.102 29.6757C154.064 29.6757 154.026 29.6806 153.989 29.6904L121.591 38.0686C121.493 38.0941 121.406 38.1514 121.344 38.2316C121.282 38.3119 121.248 38.4104 121.248 38.5119V81.5484C121.248 81.6532 121.285 81.7548 121.35 81.8363C121.416 81.9177 121.508 81.9742 121.611 81.9965L175.095 93.3761C175.173 93.3924 175.253 93.3885 175.329 93.3648L207.106 83.3302C207.2 83.301 207.281 83.2423 207.339 83.1629C207.396 83.0835 207.427 82.9877 207.426 82.8896L207.07 38.7522C207.069 38.6442 207.03 38.54 206.96 38.458C206.889 38.376 206.792 38.3215 206.686 38.3041L154.176 29.6817C154.152 29.6778 154.127 29.6758 154.102 29.6757Z" fill="#F38321"/>
<path d="M210.279 38.7265C210.273 37.8618 209.962 37.027 209.399 36.3701C208.837 35.7133 208.06 35.2767 207.207 35.138L154.697 26.5153C154.194 26.4319 153.678 26.4548 153.184 26.5825L140.878 29.7645L133.817 31.5923L120.787 34.9607C120 35.165 119.304 35.6246 118.807 36.2674C118.309 36.9101 118.039 37.6998 118.039 38.5125V81.5497C118.043 82.3885 118.333 83.2009 118.861 83.8528C119.389 84.5046 120.123 84.957 120.943 85.1351L174.428 96.515C174.679 96.5689 174.935 96.5955 175.192 96.5944C175.566 96.5951 175.938 96.5384 176.295 96.4263L208.072 86.3914C208.822 86.1574 209.476 85.6878 209.938 85.0524C210.4 84.417 210.645 83.6496 210.636 82.8641L210.279 38.7265ZM207.797 85.5172L176.02 95.5521C175.567 95.6933 175.085 95.7164 174.62 95.6193L121.132 84.2396C120.518 84.1055 119.967 83.766 119.572 83.277C119.176 82.788 118.959 82.1787 118.956 81.5497V38.5125C118.956 37.9493 119.13 37.3997 119.452 36.9378C119.774 36.476 120.231 36.1241 120.759 35.9297C120.843 35.8982 120.929 35.8716 121.016 35.8502L134.802 32.2862L142.954 30.1771L153.413 27.472C153.638 27.4122 153.869 27.3823 154.101 27.3834C154.251 27.3833 154.4 27.3956 154.547 27.4201L207.057 36.0428C207.48 36.1121 207.88 36.2789 208.227 36.5298C208.574 36.7807 208.858 37.109 209.056 37.4886C209.254 37.8734 209.359 38.2997 209.362 38.7326L209.719 82.8702C209.726 83.4595 209.542 84.0352 209.196 84.5119C208.85 84.9887 208.359 85.3412 207.797 85.5172Z" fill="#3F3D56"/>
<path d="M209.056 37.4886C209.02 37.512 208.981 37.5295 208.94 37.5405L193.495 41.7159L188.687 43.0149L175.011 46.7104C174.972 46.72 174.932 46.7251 174.892 46.7257C174.864 46.7251 174.837 46.7231 174.81 46.7195L119.668 36.6663L119.485 36.6327C119.365 36.6104 119.259 36.5416 119.19 36.4414C119.121 36.3412 119.095 36.2178 119.117 36.0982C119.139 35.9785 119.207 35.8724 119.307 35.803C119.407 35.7336 119.53 35.7066 119.65 35.7279L120.759 35.9297L174.874 45.7964L186.66 42.6114L193.253 40.8294L208.46 36.7183L208.701 36.6541C208.806 36.6266 208.916 36.6366 209.014 36.6824C209.112 36.7282 209.191 36.8069 209.236 36.9047C209.248 36.9281 209.257 36.9527 209.264 36.9781C209.289 37.0742 209.282 37.1759 209.245 37.2679C209.207 37.36 209.141 37.4374 209.056 37.4886Z" fill="#3F3D56"/>
<path d="M175.351 96.7014C175.23 96.7014 175.114 96.6537 175.028 96.5686C174.942 96.4835 174.893 96.368 174.892 96.2471L174.434 46.2713C174.433 46.1498 174.48 46.0327 174.565 45.946C174.65 45.8592 174.766 45.8098 174.888 45.8087H174.892C175.013 45.8087 175.129 45.8564 175.215 45.9415C175.301 46.0266 175.349 46.1421 175.351 46.263L175.809 96.2387C175.81 96.3603 175.763 96.4774 175.678 96.5641C175.593 96.6509 175.476 96.7003 175.355 96.7014H175.351Z" fill="#3F3D56"/>
<path d="M193.494 90.6218L188.686 91.9208L186.659 42.6114L134.95 32.3229C134.9 32.3139 134.85 32.3016 134.801 32.2862C134.403 32.1731 134.056 31.9284 133.816 31.5923L140.877 29.7645L142.953 30.1771L192.018 39.9369C192.276 39.9879 192.519 40.094 192.733 40.2481C192.946 40.4021 193.123 40.6005 193.252 40.8294C193.405 41.0954 193.491 90.3039 193.494 90.6218Z" fill="#3F3D56"/>
<path d="M191.341 62.5076C191.587 62.7179 191.815 62.9473 192.025 63.1936L220.829 59.8297L223.63 53.3656L233.938 56.3182L230.091 68.2435C229.78 69.2069 229.165 70.0435 228.338 70.6276C227.512 71.2118 226.518 71.5121 225.506 71.4833L192.527 70.5458C191.848 71.5906 190.866 72.4038 189.713 72.8771C188.56 73.3504 187.29 73.4614 186.072 73.1953C184.854 72.9293 183.747 72.2988 182.896 71.3878C182.045 70.4767 181.492 69.3283 181.31 68.0952C181.128 66.8621 181.326 65.6028 181.877 64.4848C182.428 63.3668 183.306 62.4431 184.395 61.8365C185.484 61.2299 186.732 60.9692 187.973 61.0891C189.213 61.209 190.388 61.7038 191.341 62.5076Z" fill="#FFB6B6"/>
<path d="M220.154 58.3378C219.998 57.9937 219.917 57.6198 219.918 57.2417C219.919 56.8635 220.002 56.4901 220.16 56.1468L225.694 44.1556C226.238 42.2989 227.496 40.7334 229.192 39.8026C230.888 38.8718 232.884 38.6516 234.742 39.1903C236.6 39.7289 238.169 40.9825 239.104 42.6761C240.04 44.3697 240.265 46.3651 239.732 48.2248L237.909 61.3482C237.857 61.7228 237.725 62.0817 237.522 62.4005C237.318 62.7194 237.049 62.9907 236.731 63.196C236.414 63.4012 236.056 63.5356 235.681 63.59C235.307 63.6444 234.926 63.6176 234.563 63.5112L221.81 59.7738C221.447 59.6676 221.111 59.4844 220.825 59.2365C220.539 58.9887 220.311 58.6822 220.154 58.3378Z" fill="#3F3D56"/>
<path d="M316.773 249.854H0.611005C0.449311 249.854 0.294394 249.789 0.180224 249.675C0.066054 249.56 0.00195312 249.405 0.00195312 249.244C0.00195312 249.082 0.066054 248.927 0.180224 248.812C0.294394 248.698 0.449311 248.633 0.611005 248.633H316.773C316.935 248.633 317.09 248.697 317.205 248.812C317.319 248.926 317.384 249.082 317.384 249.244C317.384 249.406 317.319 249.561 317.205 249.675C317.09 249.79 316.935 249.854 316.773 249.854Z" fill="#CACACA"/>
<path d="M61.6193 184.95C71.7654 184.95 79.9905 176.725 79.9905 166.579C79.9905 156.433 71.7654 148.208 61.6193 148.208C51.4731 148.208 43.248 156.433 43.248 166.579C43.248 176.725 51.4731 184.95 61.6193 184.95Z" fill="#F38321"/>
<path d="M59.1119 176.141C58.7947 176.141 58.4818 176.067 58.1981 175.925C57.9143 175.783 57.6675 175.577 57.4773 175.323L52.4653 168.64C52.1401 168.207 52.0005 167.662 52.0772 167.125C52.1539 166.589 52.4405 166.105 52.8741 165.779C53.3077 165.454 53.8527 165.315 54.3892 165.391C54.9257 165.468 55.4098 165.755 55.735 166.188L59.014 170.56L67.4356 157.927C67.5841 157.703 67.7753 157.511 67.9984 157.36C68.2215 157.21 68.472 157.106 68.7356 157.052C68.9992 156.999 69.2707 156.999 69.5345 157.051C69.7984 157.103 70.0494 157.206 70.2731 157.355C70.4968 157.505 70.6889 157.696 70.8384 157.92C70.9878 158.143 71.0917 158.394 71.144 158.658C71.1964 158.922 71.1961 159.193 71.1433 159.457C71.0905 159.721 70.9862 159.971 70.8363 160.195L60.8125 175.23C60.6311 175.502 60.3872 175.727 60.1013 175.885C59.8153 176.043 59.4955 176.131 59.1688 176.14C59.1499 176.14 59.1309 176.141 59.1119 176.141Z" fill="white"/>
<path d="M139.842 68.9994C139.785 68.9993 139.728 68.9929 139.672 68.9804L123.769 65.3893C123.57 65.3442 123.397 65.2219 123.289 65.0495C123.18 64.877 123.144 64.6684 123.189 64.4695C123.234 64.2706 123.356 64.0976 123.528 63.9885C123.7 63.8795 123.909 63.8433 124.108 63.8879L140.011 67.4789C140.196 67.5206 140.358 67.6289 140.468 67.7831C140.578 67.9373 140.627 68.1265 140.606 68.3146C140.585 68.5028 140.496 68.6766 140.355 68.8029C140.214 68.9292 140.031 68.9992 139.842 68.9994Z" fill="white"/>
<path d="M78.6368 213.531C78.5808 213.543 78.5238 213.548 78.4666 213.547L62.1654 213.273C61.9616 213.269 61.7676 213.184 61.626 213.038C61.4845 212.891 61.4069 212.694 61.4103 212.49C61.4136 212.287 61.4978 212.093 61.6441 211.951C61.7905 211.809 61.9871 211.731 62.1909 211.734L78.4922 212.008C78.6814 212.011 78.8629 212.084 79.0018 212.213C79.1407 212.341 79.2274 212.517 79.2453 212.705C79.2632 212.894 79.211 213.082 79.0988 213.234C78.9865 213.387 78.822 213.492 78.6368 213.531Z" fill="#E6E6E6"/>
<path d="M84.2813 222.252C84.2253 222.264 84.1683 222.269 84.1112 222.268L67.8099 221.994C67.6061 221.99 67.4121 221.905 67.2706 221.759C67.129 221.612 67.0514 221.415 67.0548 221.212C67.0582 221.008 67.1423 220.814 67.2886 220.672C67.435 220.53 67.6317 220.452 67.8355 220.455L84.1367 220.729C84.326 220.733 84.5074 220.805 84.6463 220.934C84.7853 221.062 84.872 221.238 84.8898 221.426C84.9077 221.615 84.8556 221.803 84.7433 221.955C84.631 222.108 84.4666 222.213 84.2813 222.252Z" fill="#E6E6E6"/>
</g>
<defs>
<clipPath id="clip0_2267_8453">
<rect width="317.383" height="250" fill="white"/>
</clipPath>
</defs>
</svg>
