<svg width="480" height="250" viewBox="0 0 480 250" fill="none" xmlns="http://www.w3.org/2000/svg">
<g clip-path="url(#clip0_2267_8495)">
<path d="M146.342 13.6131C148.151 7.8478 152.265 2.56009 157.954 0.611116C163.643 -1.33786 171.974 1.63107 176.252 5.89389C184.076 13.6914 185.985 40.4788 180.61 48.9439C179.54 48.8873 175.851 48.8455 174.769 48.805L173.238 43.7028V48.7547C164.792 48.4936 155.998 48.6571 147.2 48.8261C146.411 42.8327 144.533 19.3783 146.342 13.6131Z" fill="#2F2E41"/>
<path d="M229.958 102.815C229.198 102.713 228.469 102.446 227.824 102.032C227.178 101.619 226.631 101.069 226.221 100.421C225.812 99.7728 225.549 99.0428 225.451 98.2823C225.354 97.5218 225.425 96.7493 225.658 96.019L210.75 84.8353L219.867 81.5673L232.626 92.6885C233.827 93.1623 234.812 94.06 235.395 95.2117C235.978 96.3633 236.119 97.6888 235.79 98.9371C235.461 100.185 234.685 101.269 233.611 101.984C232.536 102.699 231.236 102.995 229.958 102.815Z" fill="#FFB7B7"/>
<path d="M170.734 44.1962L172.161 39.1498C172.161 39.1498 175.718 37.99 181.787 42.3922C187.857 46.7943 225.324 86.0886 225.324 86.0886L214.169 87.6483L180.078 63.2938L170.734 44.1962Z" fill="#4A4862"/>
<path d="M404.148 236.942C426.965 225.291 445.131 201.93 444.63 176.315C423.299 194.236 396.315 204.035 368.455 203.977C357.71 203.915 345.766 202.728 337.415 209.49C332.219 213.697 329.496 220.362 328.689 226.998C327.883 233.635 328.788 240.348 329.692 246.972L329.131 248.544C354.691 250.298 381.331 248.594 404.148 236.942Z" fill="#F0F0F0"/>
<path d="M444.096 176.253C434.157 194.733 418.25 210.157 399.288 219.213C395.188 221.171 390.859 222.8 386.332 223.393C381.916 223.936 377.434 223.287 373.353 221.513C369.514 219.935 365.771 217.877 361.616 217.259C357.236 216.609 353.049 218.043 349.653 220.811C345.499 224.198 342.808 228.875 340.337 233.541C337.592 238.721 334.823 244.145 329.976 247.684C329.388 248.113 330.088 249 330.675 248.571C339.109 242.414 341.139 231.318 348.045 223.871C351.267 220.395 355.556 217.87 360.432 218.26C364.695 218.601 368.557 220.72 372.43 222.352C376.496 224.064 380.62 225.012 385.053 224.662C389.587 224.304 393.989 222.841 398.121 220.996C407.459 216.744 416.07 211.049 423.639 204.122C432.322 196.263 439.596 186.978 445.147 176.666C445.49 176.028 444.437 175.619 444.096 176.253Z" fill="white"/>
<path d="M405.606 216.594C407.593 219.585 410.579 221.771 414.03 222.763C417.48 223.756 421.171 223.489 424.444 222.011C425.105 221.71 424.668 220.668 424.006 220.97C420.961 222.352 417.523 222.6 414.311 221.669C411.1 220.739 408.327 218.691 406.493 215.896C406.094 215.288 405.209 215.991 405.606 216.594Z" fill="white"/>
<path d="M375.193 222.569C376.578 215.362 380.63 208.941 386.539 204.587C387.125 204.156 386.425 203.27 385.84 203.7C379.699 208.242 375.497 214.933 374.072 222.436C373.937 223.152 375.059 223.281 375.193 222.569Z" fill="white"/>
<path d="M430.958 195.644C429.948 194.647 429.201 193.415 428.785 192.058C428.369 190.702 428.296 189.263 428.573 187.871C428.717 187.158 427.595 187.029 427.452 187.738C427.153 189.277 427.235 190.866 427.691 192.366C428.148 193.866 428.965 195.231 430.071 196.343C430.166 196.456 430.301 196.529 430.449 196.546C430.596 196.564 430.744 196.525 430.864 196.437C430.981 196.344 431.056 196.208 431.074 196.06C431.091 195.911 431.05 195.762 430.958 195.644Z" fill="white"/>
<path d="M376.716 122.351C376.613 122.793 376.51 123.236 376.399 123.683C374.986 129.629 373.092 135.45 370.737 141.089C370.562 141.528 370.378 141.97 370.19 142.403C364.37 155.929 356.09 168.257 345.769 178.76C341.659 182.935 337.237 186.792 332.541 190.297C326.056 195.137 318.639 199.868 314.26 206.376C313.796 207.05 313.374 207.752 312.996 208.478L327.256 247.738C327.333 247.811 327.401 247.888 327.479 247.961L327.976 249.555C328.231 249.391 328.492 249.215 328.747 249.052C328.895 248.957 329.04 248.854 329.188 248.76C329.286 248.694 329.384 248.628 329.476 248.574C329.508 248.552 329.541 248.53 329.565 248.511C329.657 248.458 329.736 248.398 329.819 248.348C331.279 247.371 332.735 246.383 334.187 245.382C334.196 245.379 334.196 245.379 334.202 245.367C345.242 237.717 355.742 229.078 364.596 219.119C364.862 218.82 365.137 218.517 365.397 218.199C369.363 213.689 372.954 208.861 376.133 203.765C377.866 200.969 379.455 198.088 380.896 195.131C384.603 187.484 387.085 179.302 388.25 170.884C390.57 154.103 387.498 136.766 377.491 123.367C377.234 123.024 376.981 122.69 376.716 122.351Z" fill="#F0F0F0"/>
<path d="M376.251 122.62C379.441 143.359 376.027 165.251 366.339 183.898C364.244 187.93 361.769 191.837 358.511 195.036C355.312 198.129 351.343 200.309 347.016 201.35C343.001 202.401 338.773 203.011 335.084 205.02C331.195 207.137 328.716 210.803 327.671 215.058C326.392 220.263 327.06 225.618 327.896 230.831C328.823 236.62 329.879 242.618 328.139 248.362C327.928 249.058 329.02 249.344 329.231 248.65C332.258 238.656 327.199 228.574 328.228 218.469C328.709 213.754 330.613 209.156 334.74 206.532C338.35 204.237 342.71 203.604 346.784 202.575C351.062 201.494 354.925 199.769 358.254 196.82C361.659 193.804 364.292 189.985 366.481 186.025C371.376 177.007 374.823 167.276 376.696 157.188C378.897 145.686 379.115 133.892 377.339 122.317C377.228 121.601 376.141 121.908 376.251 122.62Z" fill="white"/>
<path d="M369.806 178.003C373.193 179.194 376.893 179.143 380.246 177.857C383.598 176.572 386.385 174.137 388.108 170.987C388.454 170.348 387.478 169.78 387.131 170.419C385.532 173.356 382.937 175.624 379.812 176.814C376.688 178.005 373.241 178.039 370.093 176.911C369.409 176.667 369.125 177.76 369.806 178.003Z" fill="white"/>
<path d="M349.12 201.085C345.887 194.496 345.256 186.93 347.352 179.896C347.561 179.199 346.469 178.913 346.261 179.609C344.092 186.932 344.765 194.804 348.145 201.654C348.467 202.306 349.441 201.734 349.12 201.085Z" fill="white"/>
<path d="M377.434 146.012C376.028 145.824 374.69 145.29 373.541 144.457C372.392 143.625 371.467 142.52 370.851 141.241C370.537 140.585 369.563 141.158 369.875 141.81C370.563 143.219 371.585 144.438 372.853 145.361C374.121 146.284 375.595 146.882 377.147 147.104C377.292 147.137 377.443 147.114 377.571 147.039C377.7 146.964 377.794 146.844 377.837 146.702C377.874 146.557 377.853 146.403 377.777 146.274C377.702 146.145 377.579 146.051 377.434 146.012Z" fill="white"/>
<path d="M129.714 51.671C110.169 35.1079 81.6102 27.3502 58.168 37.6855C82.9267 50.4612 102.369 71.5827 113.054 97.313C117.138 107.251 120.647 118.73 130.105 123.829C135.99 127.002 143.189 126.946 149.624 125.132C156.059 123.318 161.903 119.896 167.668 116.509L169.334 116.42C161.101 92.1594 149.26 68.2341 129.714 51.671Z" fill="#F0F0F0"/>
<path d="M58.317 38.2021C79.1995 40.2501 99.563 48.9828 115.228 62.9894C118.615 66.0176 121.787 69.3843 124.079 73.3328C126.283 77.1987 127.411 81.5842 127.347 86.0338C127.371 90.1838 126.914 94.4316 127.946 98.5036C129.034 102.796 131.972 106.106 135.834 108.173C140.561 110.701 145.914 111.38 151.172 111.863C157.01 112.399 163.082 112.863 168.216 115.972C168.838 116.348 169.386 115.361 168.765 114.985C159.833 109.576 148.812 111.979 139.278 108.478C134.829 106.844 130.845 103.86 129.326 99.2105C127.997 95.1451 128.464 90.7644 128.477 86.5622C128.49 82.1499 127.775 77.9797 125.744 74.0242C123.665 69.978 120.618 66.4803 117.324 63.3788C109.8 56.4015 101.227 50.6504 91.9172 46.3363C81.3194 41.3538 69.9474 38.2208 58.2931 37.073C57.5717 37.0023 57.6003 38.1319 58.317 38.2021Z" fill="white"/>
<path d="M110.376 58.168C112.369 55.1816 113.236 51.5839 112.822 48.0174C112.407 44.4509 110.738 41.1478 108.113 38.6981C107.58 38.2042 106.788 39.0091 107.322 39.5036C109.77 41.7802 111.324 44.8572 111.703 48.1791C112.083 51.501 111.262 54.849 109.389 57.6189C108.983 58.2213 109.972 58.767 110.376 58.168Z" fill="white"/>
<path d="M127.611 83.928C120.426 85.428 112.94 84.1647 106.645 80.3902C106.022 80.0158 105.474 81.0029 106.096 81.3769C112.654 85.2925 120.447 86.5913 127.921 85.014C128.633 84.8632 128.32 83.778 127.611 83.928Z" fill="white"/>
<path d="M81.272 42.8503C80.7415 44.1665 79.8924 45.3304 78.801 46.2373C77.7096 47.1443 76.41 47.766 75.0189 48.0466C74.3052 48.1883 74.6192 49.2733 75.3284 49.1325C76.8638 48.8154 78.2983 48.127 79.5063 47.1276C80.7144 46.1282 81.6594 44.8482 82.2586 43.3994C82.3266 43.2675 82.3418 43.1148 82.3011 42.9721C82.2605 42.8295 82.167 42.7077 82.0398 42.6315C81.9088 42.5594 81.7547 42.542 81.6109 42.583C81.4671 42.6239 81.3453 42.72 81.272 42.8503Z" fill="white"/>
<path d="M34.5488 121.152C34.997 121.076 35.4452 121 35.9003 120.931C41.9313 119.943 48.0327 119.446 54.1442 119.446C54.6167 119.438 55.0957 119.438 55.5674 119.444C70.2914 119.601 84.8583 122.49 98.5276 127.964C103.965 130.148 109.228 132.742 114.272 135.724C121.238 139.842 128.462 144.862 136.155 146.394C136.956 146.563 137.766 146.682 138.582 146.751L169.312 118.46C169.349 118.361 169.394 118.268 169.432 118.168L170.71 117.095C170.461 116.923 170.199 116.75 169.949 116.578C169.805 116.478 169.654 116.384 169.51 116.283C169.411 116.218 169.313 116.154 169.228 116.09C169.195 116.068 169.162 116.046 169.136 116.032C169.051 115.968 168.965 115.917 168.886 115.86C167.422 114.889 165.949 113.926 164.467 112.972C164.46 112.965 164.46 112.965 164.447 112.965C153.132 105.726 141.114 99.3681 128.512 95.0365C128.133 94.9063 127.748 94.7688 127.354 94.6515C121.663 92.7306 115.825 91.278 109.897 90.3083C106.65 89.7877 103.378 89.4319 100.095 89.2422C91.6096 88.7683 83.1028 89.6319 74.8863 91.8015C58.5072 96.1289 43.6945 105.646 35.188 120.045C34.9706 120.414 34.7597 120.776 34.5488 121.152Z" fill="#F0F0F0"/>
<path d="M34.9778 121.478C52.8844 110.54 74.4011 105.253 95.342 107.005C99.8693 107.383 104.429 108.162 108.636 109.935C112.723 111.694 116.265 114.517 118.893 118.108C121.41 121.407 123.603 125.074 126.879 127.704C130.331 130.476 134.67 131.35 138.998 130.674C144.294 129.848 148.977 127.167 153.466 124.387C158.45 121.3 163.578 118.014 169.549 117.406C170.272 117.332 170.115 116.214 169.393 116.287C159.004 117.346 151.651 125.9 141.931 128.845C137.395 130.219 132.418 130.235 128.406 127.437C124.897 124.991 122.633 121.212 120.113 117.85C117.467 114.319 114.385 111.419 110.382 109.484C106.286 107.505 101.747 106.547 97.2493 106.054C87.0416 105.013 76.7336 105.582 66.703 107.743C55.2414 110.145 44.2752 114.491 34.2789 120.591C33.6603 120.969 34.3633 121.853 34.9778 121.478Z" fill="white"/>
<path d="M88.5646 106.076C88.358 102.492 86.884 99.0971 84.4058 96.499C81.9276 93.9009 78.6065 92.2683 75.0357 91.8928C74.313 91.8193 74.1648 92.939 74.8885 93.0126C78.2143 93.3562 81.3077 94.8772 83.6105 97.3013C85.9133 99.7254 87.2737 102.893 87.4462 106.232C87.4845 106.957 88.6027 106.798 88.5646 106.076Z" fill="white"/>
<path d="M117.837 116.267C113.003 121.79 106.265 125.289 98.9666 126.065C98.2434 126.141 98.3999 127.26 99.1222 127.183C106.716 126.361 113.72 122.706 118.738 116.948C119.215 116.398 118.312 115.721 117.837 116.267Z" fill="white"/>
<path d="M56.1063 111.368C56.4752 112.738 56.498 114.179 56.1726 115.56C55.8472 116.941 55.1839 118.22 54.2421 119.282C53.7575 119.825 54.6616 120.502 55.143 119.963C56.178 118.785 56.9089 117.372 57.2718 115.846C57.6347 114.321 57.6185 112.73 57.2246 111.212C57.1995 111.066 57.1197 110.935 57.0013 110.846C56.883 110.756 56.7351 110.715 56.5876 110.731C56.4397 110.752 56.3061 110.831 56.216 110.951C56.1258 111.07 56.0864 111.22 56.1063 111.368Z" fill="white"/>
<path d="M337.373 150.809C337.292 149.383 336.708 148.032 335.726 146.995C334.743 145.958 333.426 145.302 332.006 145.144L244.651 135.288C243.813 135.192 242.965 135.273 242.16 135.524L222.121 141.799L210.623 145.402L189.404 152.044C188.123 152.447 187.012 153.263 186.245 154.365C185.478 155.467 185.099 156.792 185.166 158.133L188.748 243.272C188.824 244.655 189.37 245.972 190.295 247.003C191.22 248.035 192.47 248.72 193.837 248.946L283.03 249.14C283.449 249.208 283.874 249.231 284.298 249.208C284.915 249.178 285.525 249.053 286.104 248.839L338.371 248.477C339.589 248.029 340.63 247.2 341.339 246.113C342.049 245.026 342.389 243.74 342.309 242.444L337.373 150.809Z" fill="white"/>
<path d="M194.679 243.71L283.871 243.903C284.002 243.925 284.136 243.913 284.26 243.867L336.52 243.509C336.673 243.454 336.804 243.35 336.893 243.214C336.983 243.077 337.025 242.915 337.014 242.753L332.083 151.116C332.071 150.939 331.998 150.771 331.876 150.642C331.754 150.513 331.59 150.43 331.414 150.408L330.826 150.339L244.055 140.558C244.015 140.553 243.975 140.552 243.935 140.555C243.87 140.557 243.805 140.567 243.742 140.585L194.866 155.891L190.987 157.103C190.828 157.155 190.691 157.257 190.596 157.394C190.5 157.531 190.453 157.696 190.46 157.863L194.043 242.998C194.052 243.172 194.119 243.337 194.235 243.467C194.351 243.596 194.507 243.682 194.679 243.71Z" fill="#F38321"/>
<path d="M194.865 155.891L243.742 140.585C243.804 140.567 243.869 140.557 243.934 140.555C243.974 140.552 244.014 140.553 244.054 140.558L330.825 150.339L309.927 157.139L302.106 159.68L279.851 166.917C279.785 166.934 279.718 166.948 279.65 166.957C279.607 166.953 279.564 166.95 279.513 166.947L194.865 155.891Z" fill="#2F2E41"/>
<path d="M193.837 248.95L283.03 249.143C283.449 249.21 283.875 249.23 284.299 249.203C284.917 249.175 285.527 249.053 286.109 248.842L338.369 248.484C339.587 248.034 340.628 247.204 341.338 246.116C342.048 245.029 342.389 243.742 342.31 242.446L337.372 150.81C337.309 149.736 336.964 148.699 336.371 147.802C336.289 147.684 336.207 147.565 336.118 147.456C335.504 146.652 334.694 146.02 333.767 145.618C333.207 145.372 332.614 145.213 332.007 145.145L331.903 145.131L244.655 135.286C244.3 135.25 243.942 135.24 243.585 135.255C243.1 135.288 242.621 135.38 242.158 135.529L222.121 141.796L210.625 145.405L189.402 152.047C188.534 152.317 187.738 152.782 187.075 153.405C187.023 153.446 186.974 153.491 186.929 153.541C186.896 153.573 186.866 153.608 186.839 153.645C186.27 154.24 185.829 154.943 185.542 155.714C185.255 156.485 185.127 157.305 185.167 158.127L188.743 243.272C188.82 244.657 189.366 245.974 190.292 247.006C191.218 248.039 192.469 248.724 193.837 248.95ZM186.678 158.056C186.637 157.205 186.839 156.359 187.26 155.618C187.386 155.382 187.534 155.159 187.705 154.953C188.168 154.383 188.764 153.934 189.44 153.646C189.574 153.588 189.71 153.538 189.85 153.497L225.583 142.313L242.613 136.97C242.728 136.931 242.836 136.91 242.944 136.881C243.206 136.819 243.473 136.783 243.742 136.772C243.987 136.753 244.234 136.759 244.477 136.791L331.829 146.65C331.898 146.659 331.959 146.669 332.028 146.678C332.829 146.797 333.581 147.133 334.204 147.649C334.693 148.042 335.093 148.534 335.379 149.092C335.665 149.65 335.829 150.262 335.862 150.889L340.793 242.534C340.853 243.504 340.598 244.468 340.068 245.283C339.537 246.098 338.759 246.72 337.848 247.059L285.579 247.419C284.84 247.69 284.044 247.766 283.267 247.64L194.075 247.456C193.051 247.284 192.116 246.769 191.423 245.996C190.73 245.223 190.321 244.237 190.262 243.201L186.678 158.056Z" fill="#3F3D56"/>
<path d="M284.569 249.371C284.369 249.381 284.174 249.312 284.025 249.179C283.876 249.046 283.786 248.859 283.774 248.66L278.859 166.241C278.847 166.041 278.915 165.844 279.048 165.693C279.182 165.543 279.369 165.452 279.57 165.44L279.577 165.44C279.776 165.43 279.972 165.499 280.12 165.632C280.269 165.765 280.359 165.952 280.371 166.151L285.287 248.57C285.299 248.77 285.23 248.967 285.097 249.117C284.964 249.268 284.776 249.359 284.576 249.371L284.569 249.371Z" fill="#3F3D56"/>
<path d="M315.405 243.796L306.847 243.738L298.727 159.185C298.727 159.185 309.006 154.981 309.456 155.696C309.731 156.122 315.373 243.272 315.405 243.796Z" fill="#3F3D56"/>
<path d="M334.648 148.37L334.03 147.865C333.394 147.342 332.62 147.015 331.801 146.926L244.451 137.067C243.969 137.014 243.482 137.041 243.008 137.147L242.681 137.228L242.615 135.921L257.102 119.896C257.964 118.946 259.035 118.208 260.229 117.739C261.424 117.271 262.71 117.084 263.989 117.194L323.041 122.419C324.805 122.569 326.474 123.282 327.802 124.453C329.131 125.623 330.048 127.19 330.418 128.921L334.648 148.37Z" fill="#3F3D56"/>
<path d="M202.62 212.855C202.714 212.84 202.808 212.835 202.902 212.841L229.787 214.47C230.124 214.49 230.438 214.644 230.662 214.896C230.886 215.148 231 215.479 230.979 215.816C230.959 216.152 230.806 216.467 230.554 216.691C230.301 216.914 229.97 217.028 229.634 217.008L202.749 215.379C202.437 215.36 202.143 215.226 201.923 215.004C201.703 214.782 201.572 214.487 201.556 214.174C201.54 213.862 201.64 213.555 201.836 213.311C202.033 213.068 202.312 212.905 202.62 212.855Z" fill="white"/>
<path d="M203.072 222.299C203.165 222.284 203.259 222.279 203.354 222.285L230.238 223.914C230.575 223.935 230.889 224.088 231.113 224.34C231.337 224.593 231.451 224.924 231.431 225.26C231.41 225.597 231.257 225.911 231.005 226.135C230.752 226.359 230.421 226.473 230.085 226.453L203.2 224.823C202.888 224.804 202.594 224.671 202.374 224.449C202.154 224.226 202.023 223.931 202.008 223.619C201.992 223.306 202.091 222.999 202.288 222.756C202.484 222.512 202.763 222.35 203.072 222.299Z" fill="white"/>
<path d="M331.661 109.527L279.802 137.762L258.496 98.6296L310.355 70.3944L331.661 109.527Z" fill="white"/>
<path d="M331.661 109.527L279.802 137.762L258.496 98.6296L310.355 70.3944L331.661 109.527ZM280.237 136.289L330.188 109.092L309.92 71.8676L259.969 99.0641L280.237 136.289Z" fill="#4A4862"/>
<path d="M309.317 84.7767L271.139 105.564L272.524 108.109L310.703 87.322L309.317 84.7767Z" fill="#F38321"/>
<path d="M313.474 92.412L275.295 113.199L276.681 115.744L314.859 94.9573L313.474 92.412Z" fill="#F38321"/>
<path d="M317.632 100.048L279.453 120.835L280.839 123.38L319.018 102.593L317.632 100.048Z" fill="#F38321"/>
<path d="M213.486 75.0422C212.95 74.4418 212.768 74.3806 212.577 74.5119L183.066 94.8733C182.878 95.0031 182.867 95.1948 183.232 95.9004C184.197 97.3934 185.376 99.1564 186.666 101.027L224.636 156.059C228.195 161.218 231.287 165.279 231.528 165.113L261.039 144.751C261.28 144.585 258.581 140.253 255.022 135.094L217.052 80.0616C215.765 78.1956 214.538 76.4718 213.486 75.0422Z" fill="white"/>
<path d="M217.417 80.1932C216.747 79.2525 216.107 78.3803 215.536 77.6203C214.849 76.7097 214.285 75.988 213.858 75.4721C213.717 75.3041 213.595 75.1601 213.486 75.0422C212.95 74.4418 212.768 74.3806 212.577 74.5119L183.066 94.8733C182.878 95.0031 182.867 95.1948 183.232 95.9004C183.307 96.0452 183.399 96.2154 183.509 96.4109C183.838 96.9918 184.313 97.7747 184.922 98.7428C185.94 100.355 187.28 102.369 188.693 104.416L224.75 156.676C226.387 159.05 227.975 161.251 229.219 162.879C231.292 165.588 231.444 165.483 231.674 165.324L261.185 144.963C261.416 144.804 261.568 144.699 259.77 141.8C258.691 140.059 257.196 137.793 255.559 135.42L219.502 83.1596C218.794 82.1347 218.089 81.1304 217.417 80.1932ZM189.115 104.125C187.707 102.083 186.37 100.074 185.358 98.4702C184.751 97.5099 184.282 96.7298 183.958 96.1573C183.775 95.8545 183.616 95.5383 183.48 95.2114L212.746 75.0191C213.004 75.2616 213.243 75.5232 213.461 75.8017C213.673 76.0547 213.919 76.3594 214.198 76.7158C214.476 77.0732 214.785 77.4782 215.127 77.9309C216.266 79.4467 217.669 81.4077 219.079 83.4512L255.136 135.711C258.558 140.671 260.529 143.94 260.773 144.623L231.503 164.818C230.951 164.348 228.595 161.345 225.173 156.385L189.115 104.125Z" fill="#E4E4E4"/>
<path d="M207.175 91.9691L201.588 95.8242C201.308 96.0176 201.116 96.3143 201.054 96.6492C200.993 96.984 201.067 97.3295 201.26 97.6098L204.599 102.449C204.793 102.729 205.089 102.92 205.424 102.982C205.759 103.043 206.104 102.969 206.385 102.777L211.972 98.9217C212.251 98.7277 212.443 98.431 212.504 98.0964C212.565 97.7618 212.492 97.4165 212.3 97.136L208.961 92.2967C208.767 92.0169 208.47 91.8254 208.136 91.764C207.801 91.7026 207.456 91.7763 207.175 91.9691Z" fill="#F38321"/>
<path d="M221.096 97.2934L201.623 110.729C201.56 110.773 201.506 110.828 201.465 110.892C201.423 110.957 201.394 111.028 201.381 111.104C201.367 111.179 201.368 111.256 201.384 111.331C201.4 111.406 201.431 111.477 201.474 111.54C201.518 111.603 201.573 111.657 201.637 111.698C201.702 111.74 201.773 111.768 201.849 111.782C201.924 111.796 202.001 111.795 202.076 111.779C202.151 111.763 202.222 111.732 202.285 111.689L221.758 98.2528C221.821 98.2093 221.875 98.1539 221.917 98.0896C221.958 98.0254 221.987 97.9535 222.001 97.8783C222.014 97.803 222.013 97.7257 221.997 97.6509C221.981 97.5761 221.951 97.5051 221.907 97.4421C221.864 97.3791 221.808 97.3253 221.744 97.2837C221.68 97.2422 221.608 97.2137 221.533 97.1998C221.457 97.186 221.38 97.1872 221.305 97.2032C221.23 97.2193 221.159 97.2499 221.096 97.2934Z" fill="#E4E4E4"/>
<path d="M210.57 107.875L203.174 112.978C203.111 113.021 203.057 113.077 203.015 113.141C202.974 113.205 202.945 113.277 202.931 113.352C202.918 113.427 202.919 113.505 202.935 113.58C202.951 113.654 202.982 113.725 203.025 113.788C203.068 113.851 203.124 113.905 203.188 113.947C203.252 113.988 203.324 114.017 203.4 114.031C203.475 114.044 203.552 114.043 203.627 114.027C203.702 114.011 203.773 113.981 203.836 113.937L211.232 108.834C211.359 108.746 211.446 108.611 211.474 108.459C211.502 108.307 211.468 108.15 211.381 108.023C211.293 107.896 211.158 107.809 211.006 107.781C210.854 107.753 210.697 107.787 210.57 107.875Z" fill="#E4E4E4"/>
<path d="M221.611 112.89L216.023 116.745C215.743 116.939 215.551 117.235 215.49 117.57C215.428 117.905 215.502 118.25 215.696 118.531L219.035 123.37C219.228 123.65 219.525 123.841 219.86 123.903C220.194 123.964 220.54 123.89 220.82 123.698L226.408 119.843C226.687 119.649 226.878 119.352 226.94 119.017C227.001 118.683 226.928 118.338 226.735 118.057L223.396 113.218C223.203 112.938 222.906 112.746 222.571 112.685C222.236 112.624 221.891 112.697 221.611 112.89Z" fill="#F38321"/>
<path d="M235.53 118.214L216.057 131.65C215.929 131.738 215.842 131.873 215.814 132.025C215.786 132.177 215.82 132.334 215.908 132.461C215.996 132.588 216.13 132.675 216.282 132.703C216.434 132.731 216.591 132.697 216.718 132.61L236.192 119.174C236.255 119.13 236.309 119.075 236.35 119.011C236.392 118.946 236.42 118.875 236.434 118.799C236.448 118.724 236.447 118.647 236.431 118.572C236.415 118.497 236.384 118.426 236.341 118.363C236.297 118.3 236.242 118.246 236.177 118.205C236.113 118.163 236.041 118.135 235.966 118.121C235.891 118.107 235.814 118.108 235.739 118.124C235.664 118.14 235.593 118.171 235.53 118.214Z" fill="#E4E4E4"/>
<path d="M225.006 128.795L217.609 133.899C217.482 133.986 217.395 134.121 217.367 134.273C217.339 134.425 217.373 134.582 217.461 134.709C217.548 134.837 217.683 134.924 217.835 134.952C217.987 134.979 218.144 134.946 218.271 134.858L225.668 129.755C225.731 129.711 225.784 129.656 225.826 129.592C225.867 129.527 225.896 129.456 225.91 129.38C225.924 129.305 225.922 129.228 225.906 129.153C225.89 129.078 225.86 129.007 225.816 128.944C225.773 128.881 225.717 128.827 225.653 128.786C225.589 128.744 225.517 128.716 225.442 128.702C225.366 128.688 225.289 128.689 225.214 128.705C225.139 128.721 225.069 128.752 225.006 128.795Z" fill="#E4E4E4"/>
<path d="M236.044 133.811L230.457 137.666C230.177 137.86 229.985 138.156 229.923 138.491C229.862 138.826 229.936 139.171 230.129 139.452L233.468 144.291C233.662 144.571 233.959 144.762 234.293 144.824C234.628 144.885 234.973 144.811 235.254 144.619L240.841 140.764C241.121 140.57 241.312 140.273 241.373 139.938C241.435 139.604 241.361 139.259 241.169 138.978L237.83 134.139C237.636 133.859 237.339 133.667 237.005 133.606C236.67 133.545 236.325 133.618 236.044 133.811Z" fill="#F38321"/>
<path d="M249.965 139.135L230.492 152.571C230.429 152.615 230.375 152.67 230.334 152.734C230.292 152.799 230.264 152.87 230.25 152.946C230.236 153.021 230.237 153.098 230.253 153.173C230.269 153.248 230.3 153.319 230.343 153.382C230.387 153.445 230.442 153.499 230.507 153.54C230.571 153.582 230.643 153.61 230.718 153.624C230.793 153.638 230.87 153.637 230.945 153.621C231.02 153.605 231.091 153.574 231.154 153.531L250.627 140.095C250.755 140.007 250.842 139.872 250.87 139.72C250.898 139.568 250.864 139.411 250.776 139.284C250.688 139.157 250.554 139.07 250.402 139.042C250.25 139.014 250.093 139.048 249.965 139.135Z" fill="#E4E4E4"/>
<path d="M239.439 149.716L232.043 154.82C231.98 154.863 231.926 154.919 231.884 154.983C231.843 155.047 231.814 155.119 231.801 155.194C231.787 155.269 231.788 155.347 231.804 155.422C231.82 155.496 231.851 155.567 231.894 155.63C231.938 155.693 231.993 155.747 232.057 155.789C232.122 155.83 232.193 155.859 232.269 155.873C232.344 155.886 232.421 155.885 232.496 155.869C232.571 155.853 232.642 155.822 232.705 155.779L240.101 150.676C240.228 150.588 240.315 150.453 240.343 150.301C240.371 150.149 240.338 149.992 240.25 149.865C240.162 149.738 240.027 149.651 239.875 149.623C239.723 149.595 239.566 149.629 239.439 149.716Z" fill="#E4E4E4"/>
<path d="M301.384 99.609C301.267 96.7446 301.089 94.8981 300.884 94.8981H225.576C225.37 94.8981 225.192 96.7446 225.075 99.609C224.997 101.606 224.947 104.097 224.947 106.795V159.266L225.253 159.305L237.634 160.918L250.537 162.608L256.433 163.376L269.042 165.022L279.515 166.39C279.565 166.396 279.609 166.396 279.654 166.402C279.721 166.39 279.787 166.379 279.849 166.363L283.97 165.022L288.725 163.476L301.206 159.416L301.512 159.316V106.795C301.512 104.097 301.462 101.606 301.384 99.609Z" fill="white"/>
<path d="M301.634 98.3687C301.595 97.6234 301.556 97.0227 301.511 96.5444C301.48 96.0446 301.41 95.548 301.3 95.0594C301.178 94.5922 301.039 94.5922 300.883 94.5922H225.575C225.419 94.5922 225.28 94.5922 225.158 95.0594C225.05 95.5727 224.98 96.0932 224.947 96.6167C224.908 97.0839 224.869 97.6623 224.83 98.3687C224.707 100.621 224.641 103.614 224.641 106.795V159.221L224.947 159.266L225.252 159.305V106.795C225.252 104.025 225.303 101.678 225.375 99.8259C225.388 98.2765 225.513 96.73 225.747 95.1984H300.716C300.951 96.7281 301.075 98.2727 301.089 99.8203C301.155 101.672 301.205 104.02 301.205 106.795V159.416L301.817 159.216V106.795C301.817 103.614 301.751 100.621 301.634 98.3687Z" fill="#E4E4E4"/>
<path d="M248.719 110.894H239.114C238.875 110.894 238.639 110.94 238.418 111.031C238.198 111.122 237.997 111.255 237.828 111.424C237.659 111.592 237.525 111.792 237.434 112.012C237.342 112.233 237.295 112.469 237.295 112.707V121.028C237.295 121.267 237.341 121.503 237.433 121.724C237.524 121.945 237.658 122.146 237.827 122.315C237.996 122.484 238.196 122.618 238.417 122.709C238.638 122.8 238.875 122.847 239.114 122.847H248.719C249.201 122.846 249.664 122.655 250.005 122.314C250.346 121.973 250.538 121.51 250.538 121.028V112.707C250.536 112.226 250.344 111.765 250.003 111.425C249.662 111.085 249.2 110.894 248.719 110.894Z" fill="#F38321"/>
<path d="M288.341 114.114H254.858C254.64 114.114 254.431 114.201 254.276 114.355C254.122 114.51 254.035 114.719 254.035 114.938C254.035 115.156 254.122 115.365 254.276 115.52C254.431 115.674 254.64 115.761 254.858 115.761H288.341C288.559 115.761 288.769 115.674 288.923 115.52C289.077 115.365 289.164 115.156 289.164 114.938C289.164 114.719 289.077 114.51 288.923 114.355C288.769 114.201 288.559 114.114 288.341 114.114Z" fill="#E4E4E4"/>
<path d="M267.573 117.98H254.858C254.64 117.98 254.431 118.067 254.276 118.221C254.122 118.375 254.035 118.585 254.035 118.803C254.035 119.021 254.122 119.231 254.276 119.385C254.431 119.539 254.64 119.626 254.858 119.626H267.573C267.791 119.626 268 119.539 268.155 119.385C268.309 119.231 268.396 119.021 268.396 118.803C268.396 118.585 268.309 118.375 268.155 118.221C268 118.067 267.791 117.98 267.573 117.98Z" fill="#E4E4E4"/>
<path d="M248.719 135.522H239.114C238.631 135.522 238.169 135.714 237.828 136.055C237.487 136.396 237.295 136.858 237.295 137.341V145.661C237.295 146.144 237.487 146.606 237.828 146.947C238.169 147.288 238.631 147.48 239.114 147.48H248.719C249.201 147.479 249.663 147.287 250.004 146.946C250.345 146.605 250.537 146.143 250.538 145.661V137.341C250.537 136.859 250.345 136.397 250.004 136.056C249.663 135.715 249.201 135.523 248.719 135.522Z" fill="#F38321"/>
<path d="M288.342 138.742H254.859C254.64 138.742 254.43 138.829 254.275 138.984C254.12 139.139 254.033 139.349 254.033 139.568C254.033 139.787 254.12 139.997 254.275 140.152C254.43 140.307 254.64 140.394 254.859 140.394H288.342C288.561 140.394 288.771 140.307 288.926 140.152C289.081 139.997 289.168 139.787 289.168 139.568C289.168 139.349 289.081 139.139 288.926 138.984C288.771 138.829 288.561 138.742 288.342 138.742Z" fill="#E4E4E4"/>
<path d="M267.574 142.608H254.859C254.64 142.608 254.43 142.695 254.275 142.85C254.12 143.005 254.033 143.215 254.033 143.434C254.033 143.653 254.12 143.863 254.275 144.018C254.43 144.173 254.64 144.26 254.859 144.26H267.574C267.793 144.26 268.003 144.173 268.158 144.018C268.312 143.863 268.4 143.653 268.4 143.434C268.4 143.215 268.312 143.005 268.158 142.85C268.003 142.695 267.793 142.608 267.574 142.608Z" fill="#E4E4E4"/>
<path d="M250.277 161.04C250.116 160.77 249.888 160.547 249.615 160.391C249.342 160.236 249.034 160.155 248.72 160.156H239.114C238.825 160.155 238.539 160.224 238.282 160.356C238.024 160.489 237.802 160.681 237.635 160.918L250.538 162.608V161.969C250.539 161.641 250.448 161.319 250.277 161.04Z" fill="#F38321"/>
<path d="M288.342 163.376H256.434L269.042 165.022H283.97L288.726 163.476C288.609 163.409 288.477 163.374 288.342 163.376Z" fill="#E4E4E4"/>
<path d="M335.255 148.871C335.194 148.91 335.129 148.942 335.061 148.965L332.296 149.861L309.927 157.141L302.107 159.677L301.817 159.772L301.206 159.972L288.725 164.032L283.969 165.578L279.848 166.919C279.787 166.936 279.72 166.947 279.653 166.958C279.609 166.952 279.564 166.952 279.514 166.947L269.041 165.578L256.432 163.932L250.537 163.165L237.633 161.474L225.253 159.861L224.947 159.822L224.641 159.777L187.704 154.955L187.393 154.911C187.321 154.904 187.251 154.883 187.187 154.85C187.038 154.783 186.915 154.67 186.835 154.528C186.755 154.386 186.722 154.222 186.742 154.06C186.757 153.924 186.809 153.795 186.892 153.687C186.926 153.654 186.953 153.62 186.987 153.593C187.015 153.576 187.048 153.543 187.081 153.526C187.231 153.423 187.413 153.379 187.593 153.404L189.44 153.648L224.641 158.248L224.947 158.287L225.253 158.326L243.49 160.712L250.275 161.596L268.135 163.932L279.542 165.423L284.131 163.932L298.725 159.188L301.206 158.381L301.511 158.281L301.817 158.181L309.454 155.701L332.169 148.309L334.204 147.647L334.599 147.519C334.769 147.465 334.953 147.473 335.117 147.541C335.282 147.61 335.418 147.734 335.5 147.892C335.52 147.929 335.537 147.968 335.55 148.008C335.6 148.165 335.598 148.333 335.545 148.488C335.492 148.643 335.39 148.777 335.255 148.871Z" fill="#3F3D56"/>
<path d="M258.452 201.175C257.963 201.175 257.476 201.137 256.993 201.062L201.149 192.341C199.232 192.035 197.452 191.154 196.046 189.815C194.641 188.475 193.675 186.74 193.277 184.84L187.045 154.589L187.429 154.636L280.783 165.921L267.134 195.62C266.366 197.277 265.141 198.68 263.603 199.664C262.065 200.648 260.278 201.172 258.452 201.175Z" fill="#3F3D56"/>
<path d="M161.515 236.222L168.316 234.804L166.084 207.899L156.047 209.992L161.515 236.222Z" fill="#FFB7B7"/>
<path d="M158.51 233.347L160.543 249.865L160.547 249.898L160.706 249.865L165.374 248.89L165.286 244.155L168.44 248.254L171.46 247.627V247.623L177.558 246.351L178.052 246.251L179.934 245.858L181.239 245.586C181.728 245.483 182.182 245.257 182.56 244.93C182.937 244.603 183.225 244.186 183.396 243.717C183.568 243.248 183.617 242.743 183.54 242.25C183.463 241.756 183.261 241.291 182.954 240.897C182.719 240.599 182.429 240.347 182.101 240.156C182.059 240.136 182.017 240.11 181.975 240.09H181.971C181.908 240.056 181.846 240.027 181.779 239.998L181.666 239.947L179.671 239.107L179.662 239.102L174.396 236.886L170.088 235.07L169.13 230.465L167.98 230.779L160.785 232.728L158.51 233.347Z" fill="#2F2E41"/>
<path d="M114.777 214.256L120.059 218.769L139.979 200.546L132.185 193.885L114.777 214.256Z" fill="#FFB7B7"/>
<path d="M107.113 225.059L110.806 222.092L109.496 227.093L119.435 235.586C119.725 235.836 120.062 236.026 120.426 236.144C120.701 236.233 120.987 236.282 121.276 236.288C121.732 236.3 122.184 236.204 122.597 236.011C123.009 235.817 123.371 235.529 123.654 235.171C123.936 234.814 124.132 234.395 124.224 233.948C124.317 233.502 124.305 233.04 124.188 232.599L120.934 220.334L123.992 216.758L123.04 216.041L117.096 211.542L115.215 210.121L103.367 221.854L107.113 225.059Z" fill="#2F2E41"/>
<path d="M141.492 106.823L174.232 105.563L175.464 72.3445L147.799 73.2327L141.492 106.823Z" fill="#FFB7B7"/>
<path d="M165.97 32.7206C172.856 32.7206 178.438 27.1383 178.438 20.2523C178.438 13.3663 172.856 7.78404 165.97 7.78404C159.084 7.78404 153.502 13.3663 153.502 20.2523C153.502 27.1383 159.084 32.7206 165.97 32.7206Z" fill="#FFB7B7"/>
<path d="M155.211 9.30215L169.567 2.11374C172.502 3.43631 175.03 5.52001 176.888 8.14872C178.746 10.7774 179.867 13.8554 180.135 17.0635L180.493 21.3497L174.482 19.8194L173.823 14.3387L172.802 19.3919L170.028 18.686L170.054 10.1772L167.278 18.6799L157.369 16.4034L155.211 9.30215Z" fill="#2F2E41"/>
<path d="M174.861 98.0081C174.861 98.0081 185.769 116.967 175.238 145.733L160.346 183.707L134.47 209.893L120.564 201.673L146.419 179.752L134.889 140.666C132.234 131.808 131.415 122.501 132.484 113.316C133.315 106.442 139.517 101.079 143.761 94.5922C157.93 103.731 174.249 102.261 174.861 98.0081Z" fill="#2F2E41"/>
<path d="M160.365 174.105L170.074 219.204L156.029 221.852L148.031 183.939L160.365 174.105Z" fill="#2F2E41"/>
<path d="M156.833 36.8897L172.953 37.1045L178.2 43.7666C180.706 44.3575 182.982 45.6719 184.747 47.5463C186.512 49.4208 187.687 51.7726 188.126 54.3094L188.621 57.1696C189.645 63.0868 188.558 69.1756 185.549 74.3729L175.708 83.6624L176.135 84.4379C176.346 84.8212 176.408 85.2689 176.309 85.6952C176.21 86.1214 175.957 86.4961 175.599 86.7475C175.901 87.5094 175.936 88.351 175.699 89.1354L175.491 89.8229C175.491 89.8229 181.009 91.2896 146.968 86.2368C146.247 86.1294 145.58 85.79 145.069 85.2699C144.558 84.7498 144.23 84.0773 144.135 83.3543C143.765 82.9822 143.521 82.5033 143.438 81.9853C143.355 81.4672 143.436 80.9361 143.671 80.4668L143.74 80.3282L143.391 79.9165C143.002 79.4584 142.777 78.8835 142.752 78.283C142.728 77.6826 142.904 77.0911 143.254 76.6026L143.165 57.0959C142.756 54.1688 143.4 51.1915 144.982 48.6952C146.565 46.1989 148.983 44.346 151.804 43.4672L156.833 36.8897Z" fill="#4A4862"/>
<path d="M202.687 120.282C202.679 119.516 202.502 118.76 202.171 118.069C201.839 117.378 201.36 116.767 200.767 116.282C200.174 115.796 199.481 115.446 198.738 115.256C197.995 115.067 197.22 115.043 196.467 115.185L187.187 99.0231L182.83 107.672L192.31 121.694C192.634 122.944 193.405 124.032 194.476 124.751C195.548 125.47 196.847 125.771 198.126 125.597C199.405 125.423 200.576 124.786 201.416 123.806C202.257 122.827 202.709 121.573 202.687 120.282Z" fill="#FFB7B7"/>
<path d="M151.737 54.345L146.554 55.1445C146.554 55.1445 144.968 58.5333 148.597 65.095C152.225 71.6566 186.651 113.641 186.651 113.641L189.56 102.76L169.551 65.9501L151.737 54.345Z" fill="#4A4862"/>
<path d="M478.591 250H0.662282C0.486976 249.999 0.319028 249.929 0.195247 249.805C0.0714668 249.681 0.00195312 249.513 0.00195312 249.338C0.00195312 249.162 0.0714668 248.994 0.195247 248.87C0.319028 248.746 0.486976 248.676 0.662282 248.676H478.591C478.767 248.676 478.935 248.745 479.059 248.869C479.184 248.994 479.253 249.162 479.253 249.338C479.253 249.513 479.184 249.682 479.059 249.806C478.935 249.93 478.767 250 478.591 250Z" fill="#CCCCCC"/>
</g>
<defs>
<clipPath id="clip0_2267_8495">
<rect width="479.253" height="250" fill="white"/>
</clipPath>
</defs>
</svg>
